<svg id="visual" viewBox="0 0 1300 450" width="1300" height="450" xmlns="http://www.w3.org/2000/svg" xmlns:xlink="http://www.w3.org/1999/xlink" version="1.1"><rect x="0" y="0" width="1300" height="450" fill="#073559"></rect><defs><linearGradient id="grad1_0" x1="65.4%" y1="0%" x2="100%" y2="100%"><stop offset="-7.777777777777775%" stop-color="#073559" stop-opacity="1"></stop><stop offset="107.77777777777777%" stop-color="#073559" stop-opacity="1"></stop></linearGradient></defs><defs><linearGradient id="grad2_0" x1="0%" y1="0%" x2="34.6%" y2="100%"><stop offset="-7.777777777777775%" stop-color="#073559" stop-opacity="1"></stop><stop offset="107.77777777777777%" stop-color="#073559" stop-opacity="1"></stop></linearGradient></defs><g transform="translate(1300, 0)"><path d="M0 247.5C-20.1 216.7 -40.2 186 -74.2 179.2C-108.3 172.5 -156.3 189.8 -175 175C-193.7 160.2 -183.1 113.3 -190.3 78.8C-197.5 44.3 -222.5 22.2 -247.5 0L0 0Z" fill="#FBAE3C"></path></g><g transform="translate(0, 450)"><path d="M0 -247.5C33.5 -246.6 67 -245.6 94.7 -228.7C122.4 -211.7 144.3 -178.7 147.1 -147.1C149.8 -115.4 133.4 -85.1 146.9 -60.8C160.4 -36.6 204 -18.3 247.5 0L0 0Z" fill="#FBAE3C"></path></g></svg>