<?xml version="1.0" encoding="UTF-8"?>
<svg xmlns="http://www.w3.org/2000/svg" xmlns:xlink="http://www.w3.org/1999/xlink" width="72px" height="72px" viewBox="0 0 72 72" version="1.1">
<g id="surface1">
<path style=" stroke:none;fill-rule:nonzero;fill:rgb(5.490196%,31.764707%,57.647061%);fill-opacity:1;" d="M 22.195312 15.796875 C 25.632812 16.957031 28.613281 18.636719 31.527344 20.800781 C 31.617188 20.863281 31.707031 20.929688 31.796875 21 C 32.351562 21.421875 32.84375 21.878906 33.324219 22.382812 C 33.574219 22.640625 33.574219 22.640625 33.984375 22.960938 C 34.125 23.082031 34.269531 23.203125 34.414062 23.328125 C 34.5 23.390625 34.585938 23.453125 34.675781 23.519531 C 35.28125 24.0625 35.484375 24.542969 35.539062 25.355469 C 35.558594 25.976562 35.558594 26.59375 35.550781 27.214844 C 35.554688 27.496094 35.554688 27.773438 35.554688 28.054688 C 35.558594 28.8125 35.558594 29.566406 35.554688 30.324219 C 35.554688 31.117188 35.554688 31.910156 35.558594 32.699219 C 35.5625 34.199219 35.5625 35.699219 35.5625 37.199219 C 35.558594 38.90625 35.5625 40.609375 35.566406 42.316406 C 35.574219 45.828125 35.574219 49.339844 35.566406 52.847656 C 35.710938 52.894531 35.851562 52.941406 36 52.992188 C 36.09375 52.945312 36.191406 52.898438 36.289062 52.847656 C 36.289062 52.632812 36.289062 52.632812 36.289062 52.410156 C 36.28125 48.894531 36.285156 45.382812 36.292969 41.867188 C 36.296875 40.167969 36.296875 38.46875 36.292969 36.769531 C 36.292969 35.289062 36.292969 33.808594 36.296875 32.324219 C 36.300781 31.542969 36.300781 30.757812 36.296875 29.972656 C 36.296875 29.234375 36.296875 28.496094 36.300781 27.757812 C 36.304688 27.488281 36.304688 27.214844 36.300781 26.945312 C 36.28125 24.644531 36.28125 24.644531 36.925781 23.898438 C 37.09375 23.75 37.261719 23.605469 37.441406 23.472656 C 37.539062 23.367188 37.632812 23.261719 37.734375 23.152344 C 39.632812 21.234375 41.890625 19.625 44.230469 18.292969 C 44.484375 18.148438 44.738281 18 44.992188 17.851562 C 48.085938 16.078125 53.214844 13.957031 56.878906 14.542969 C 57.390625 14.90625 57.546875 15.105469 57.742188 15.695312 C 57.757812 16.046875 57.761719 16.390625 57.761719 16.742188 C 57.761719 16.902344 57.761719 16.902344 57.761719 17.066406 C 57.761719 17.429688 57.761719 17.789062 57.761719 18.152344 C 57.761719 18.410156 57.761719 18.667969 57.761719 18.925781 C 57.761719 19.628906 57.757812 20.328125 57.757812 21.03125 C 57.757812 21.765625 57.757812 22.5 57.757812 23.230469 C 57.757812 24.621094 57.753906 26.011719 57.753906 27.398438 C 57.753906 28.980469 57.753906 30.5625 57.75 32.144531 C 57.75 35.398438 57.746094 38.652344 57.742188 41.902344 C 57.308594 42.132812 56.976562 42.238281 56.488281 42.285156 C 56.351562 42.296875 56.21875 42.3125 56.078125 42.328125 C 55.859375 42.347656 55.859375 42.347656 55.636719 42.371094 C 49.636719 43.0625 43.496094 45.183594 38.980469 49.3125 C 38.898438 49.382812 38.820312 49.457031 38.734375 49.53125 C 38.382812 49.867188 38.171875 50.074219 38.015625 50.542969 C 38.101562 50.46875 38.183594 50.394531 38.269531 50.316406 C 41.941406 47.171875 46.78125 45.246094 51.40625 44.0625 C 51.523438 44.035156 51.640625 44.003906 51.761719 43.972656 C 53.40625 43.5625 55.0625 43.363281 56.75 43.207031 C 56.910156 43.191406 57.070312 43.175781 57.234375 43.160156 C 57.449219 43.140625 57.449219 43.140625 57.667969 43.121094 C 58.066406 43.074219 58.066406 43.074219 58.464844 42.769531 C 58.539062 42.457031 58.539062 42.457031 58.539062 42.09375 C 58.542969 41.949219 58.546875 41.808594 58.554688 41.660156 C 58.554688 41.503906 58.558594 41.347656 58.5625 41.183594 C 58.566406 41.019531 58.574219 40.851562 58.578125 40.679688 C 58.628906 38.609375 58.621094 36.539062 58.613281 34.464844 C 58.609375 33.894531 58.609375 33.324219 58.609375 32.757812 C 58.605469 30.824219 58.601562 28.894531 58.59375 26.964844 C 58.589844 25.890625 58.589844 24.816406 58.585938 23.742188 C 58.585938 23.066406 58.582031 22.386719 58.582031 21.710938 C 58.578125 21.292969 58.578125 20.875 58.578125 20.457031 C 58.578125 20.171875 58.574219 19.886719 58.574219 19.597656 C 58.574219 19.429688 58.574219 19.257812 58.574219 19.085938 C 58.574219 18.9375 58.574219 18.789062 58.574219 18.636719 C 58.609375 18.289062 58.609375 18.289062 58.894531 18 C 59.320312 17.988281 59.722656 17.992188 60.148438 18.019531 C 60.261719 18.019531 60.375 18.023438 60.492188 18.027344 C 61.3125 18.070312 61.835938 18.222656 62.496094 18.71875 C 63.039062 19.496094 63.15625 20.054688 63.148438 20.992188 C 63.148438 21.113281 63.148438 21.238281 63.152344 21.363281 C 63.152344 21.777344 63.152344 22.191406 63.152344 22.601562 C 63.152344 22.898438 63.152344 23.195312 63.15625 23.492188 C 63.160156 24.296875 63.160156 25.097656 63.160156 25.902344 C 63.160156 26.574219 63.160156 27.246094 63.160156 27.917969 C 63.164062 29.5 63.164062 31.085938 63.164062 32.667969 C 63.160156 34.300781 63.164062 35.9375 63.171875 37.570312 C 63.175781 38.972656 63.175781 40.375 63.175781 41.777344 C 63.175781 42.617188 63.175781 43.453125 63.179688 44.292969 C 63.183594 45.078125 63.183594 45.867188 63.179688 46.65625 C 63.179688 46.945312 63.179688 47.234375 63.183594 47.523438 C 63.1875 47.917969 63.183594 48.3125 63.179688 48.707031 C 63.183594 48.820312 63.183594 48.933594 63.1875 49.050781 C 63.171875 49.820312 62.957031 50.21875 62.433594 50.785156 C 61.988281 51.160156 61.535156 51.136719 60.976562 51.140625 C 60.8125 51.140625 60.648438 51.140625 60.480469 51.144531 C 60.210938 51.144531 60.210938 51.144531 59.9375 51.144531 C 59.554688 51.148438 59.171875 51.152344 58.789062 51.15625 C 58.691406 51.15625 58.589844 51.15625 58.488281 51.15625 C 53.410156 51.179688 53.410156 51.179688 48.382812 51.839844 C 48.226562 51.871094 48.066406 51.902344 47.902344 51.933594 C 44.058594 52.722656 40.132812 54.011719 37.375 56.941406 C 36.96875 57.351562 36.613281 57.355469 36.054688 57.382812 C 35.382812 57.378906 35.019531 57.3125 34.515625 56.863281 C 34.335938 56.679688 34.15625 56.492188 33.984375 56.304688 C 28.953125 51.378906 20.222656 51.179688 13.703125 51.222656 C 13.3125 51.226562 12.917969 51.226562 12.527344 51.222656 C 12.164062 51.222656 11.800781 51.222656 11.4375 51.230469 C 10.5 51.21875 9.917969 51.15625 9.238281 50.484375 C 8.828125 49.925781 8.90625 49.289062 8.90625 48.632812 C 8.902344 48.507812 8.902344 48.386719 8.902344 48.257812 C 8.898438 47.84375 8.898438 47.429688 8.898438 47.015625 C 8.898438 46.722656 8.894531 46.425781 8.894531 46.128906 C 8.890625 45.15625 8.886719 44.179688 8.882812 43.207031 C 8.882812 43.042969 8.882812 42.875 8.882812 42.707031 C 8.878906 41.144531 8.875 39.582031 8.871094 38.019531 C 8.867188 36.019531 8.863281 34.023438 8.851562 32.023438 C 8.84375 30.621094 8.84375 29.214844 8.839844 27.808594 C 8.839844 26.972656 8.839844 26.132812 8.832031 25.292969 C 8.828125 24.503906 8.824219 23.714844 8.828125 22.925781 C 8.828125 22.632812 8.824219 22.34375 8.824219 22.054688 C 8.820312 21.660156 8.820312 21.265625 8.824219 20.867188 C 8.820312 20.753906 8.816406 20.640625 8.816406 20.523438 C 8.832031 19.625 9.175781 19.074219 9.792969 18.433594 C 10.402344 18.042969 11.136719 18.074219 11.84375 18.046875 C 12.023438 18.035156 12.023438 18.035156 12.207031 18.023438 C 12.503906 18.007812 12.804688 18.003906 13.105469 18 C 13.371094 18.269531 13.265625 18.722656 13.265625 19.082031 C 13.265625 19.179688 13.265625 19.28125 13.269531 19.382812 C 13.269531 19.714844 13.269531 20.050781 13.269531 20.386719 C 13.269531 20.625 13.269531 20.863281 13.269531 21.101562 C 13.269531 21.617188 13.273438 22.132812 13.273438 22.648438 C 13.273438 23.464844 13.277344 24.277344 13.277344 25.09375 C 13.277344 25.371094 13.28125 25.652344 13.28125 25.929688 C 13.28125 26.070312 13.28125 26.207031 13.28125 26.351562 C 13.289062 28.25 13.292969 30.148438 13.296875 32.046875 C 13.296875 33.324219 13.300781 34.605469 13.304688 35.882812 C 13.308594 36.5625 13.308594 37.238281 13.308594 37.917969 C 13.308594 38.554688 13.308594 39.191406 13.3125 39.828125 C 13.316406 40.0625 13.316406 40.296875 13.3125 40.53125 C 13.3125 40.847656 13.316406 41.167969 13.316406 41.488281 C 13.320312 41.667969 13.320312 41.84375 13.320312 42.03125 C 13.40625 42.566406 13.539062 42.734375 13.96875 43.054688 C 14.402344 43.171875 14.402344 43.171875 14.890625 43.203125 C 15.074219 43.222656 15.261719 43.242188 15.453125 43.261719 C 15.550781 43.269531 15.648438 43.277344 15.75 43.289062 C 22.128906 43.894531 29.546875 46.277344 34.273438 50.832031 C 32.570312 48.257812 29.683594 46.605469 26.929688 45.359375 C 26.824219 45.3125 26.722656 45.265625 26.613281 45.214844 C 22.851562 43.503906 18.863281 42.640625 14.78125 42.113281 C 14.398438 42.046875 14.398438 42.046875 14.257812 41.902344 C 14.242188 41.566406 14.234375 41.230469 14.234375 40.890625 C 14.234375 40.785156 14.234375 40.679688 14.234375 40.566406 C 14.230469 40.207031 14.230469 39.84375 14.230469 39.480469 C 14.230469 39.222656 14.230469 38.964844 14.226562 38.707031 C 14.226562 38.003906 14.222656 37.300781 14.222656 36.597656 C 14.222656 36.15625 14.222656 35.71875 14.21875 35.277344 C 14.21875 33.90625 14.214844 32.53125 14.214844 31.15625 C 14.210938 29.570312 14.207031 27.980469 14.203125 26.394531 C 14.199219 25.167969 14.195312 23.941406 14.195312 22.71875 C 14.195312 21.984375 14.195312 21.25 14.191406 20.519531 C 14.1875 19.828125 14.1875 19.140625 14.1875 18.449219 C 14.1875 18.199219 14.1875 17.945312 14.183594 17.691406 C 14.183594 17.347656 14.183594 17 14.1875 16.65625 C 14.183594 16.554688 14.183594 16.457031 14.179688 16.351562 C 14.191406 15.640625 14.386719 15.234375 14.832031 14.6875 C 16.769531 13.71875 20.335938 15.175781 22.195312 15.796875 Z M 22.195312 15.796875 "/>
<path style=" stroke:none;fill-rule:nonzero;fill:rgb(99.607843%,86.666667%,13.725491%);fill-opacity:1;" d="M 57.347656 14.878906 C 57.753906 15.5 57.765625 16.023438 57.761719 16.742188 C 57.761719 16.902344 57.761719 16.902344 57.761719 17.066406 C 57.761719 17.429688 57.761719 17.789062 57.761719 18.152344 C 57.761719 18.410156 57.761719 18.667969 57.761719 18.925781 C 57.761719 19.628906 57.757812 20.328125 57.757812 21.03125 C 57.757812 21.765625 57.757812 22.5 57.757812 23.230469 C 57.757812 24.621094 57.753906 26.011719 57.753906 27.398438 C 57.753906 28.980469 57.753906 30.5625 57.75 32.144531 C 57.75 35.398438 57.746094 38.652344 57.742188 41.902344 C 57.308594 42.132812 56.976562 42.238281 56.488281 42.285156 C 56.351562 42.296875 56.21875 42.3125 56.078125 42.328125 C 55.859375 42.347656 55.859375 42.347656 55.636719 42.371094 C 49.042969 43.128906 41.753906 45.65625 37.441406 50.976562 C 37.132812 51.316406 37.132812 51.316406 36.863281 51.550781 C 36.722656 51.550781 36.578125 51.550781 36.433594 51.550781 C 36.410156 48.0625 36.390625 44.570312 36.378906 41.078125 C 36.375 39.457031 36.367188 37.835938 36.355469 36.214844 C 36.347656 34.804688 36.339844 33.390625 36.335938 31.976562 C 36.335938 31.230469 36.332031 30.480469 36.324219 29.734375 C 36.320312 29.027344 36.316406 28.324219 36.316406 27.621094 C 36.316406 27.359375 36.316406 27.101562 36.3125 26.84375 C 36.28125 24.652344 36.28125 24.652344 36.925781 23.90625 C 37.09375 23.753906 37.261719 23.609375 37.441406 23.472656 C 37.539062 23.367188 37.632812 23.261719 37.734375 23.152344 C 39.632812 21.234375 41.890625 19.625 44.230469 18.292969 C 44.484375 18.148438 44.738281 18 44.992188 17.851562 C 47.378906 16.484375 54.714844 13.003906 57.347656 14.878906 Z M 57.347656 14.878906 "/>
<path style=" stroke:none;fill-rule:nonzero;fill:rgb(12.54902%,47.058824%,76.078433%);fill-opacity:1;" d="M 22.195312 15.796875 C 25.632812 16.957031 28.613281 18.636719 31.527344 20.800781 C 31.617188 20.863281 31.707031 20.929688 31.796875 21 C 32.433594 21.484375 32.996094 22.03125 33.550781 22.609375 C 33.410156 22.679688 33.410156 22.679688 33.265625 22.753906 C 33.265625 31.402344 33.265625 40.050781 33.265625 48.960938 C 33.121094 49.007812 32.980469 49.054688 32.832031 49.105469 C 32.507812 48.878906 32.214844 48.648438 31.914062 48.394531 C 27.097656 44.472656 20.765625 42.847656 14.71875 42.101562 C 14.398438 42.046875 14.398438 42.046875 14.257812 41.902344 C 14.242188 41.566406 14.234375 41.230469 14.234375 40.890625 C 14.234375 40.785156 14.234375 40.679688 14.234375 40.566406 C 14.230469 40.207031 14.230469 39.84375 14.230469 39.480469 C 14.230469 39.222656 14.230469 38.964844 14.226562 38.707031 C 14.226562 38.003906 14.222656 37.300781 14.222656 36.597656 C 14.222656 36.15625 14.222656 35.71875 14.21875 35.277344 C 14.21875 33.90625 14.214844 32.53125 14.214844 31.15625 C 14.210938 29.570312 14.207031 27.980469 14.203125 26.394531 C 14.199219 25.167969 14.195312 23.941406 14.195312 22.71875 C 14.195312 21.984375 14.195312 21.25 14.191406 20.519531 C 14.1875 19.828125 14.1875 19.140625 14.1875 18.449219 C 14.1875 18.199219 14.1875 17.945312 14.183594 17.691406 C 14.183594 17.347656 14.183594 17 14.1875 16.65625 C 14.183594 16.554688 14.183594 16.457031 14.179688 16.351562 C 14.191406 15.640625 14.386719 15.234375 14.832031 14.6875 C 16.769531 13.71875 20.335938 15.175781 22.195312 15.796875 Z M 22.195312 15.796875 "/>
<path style=" stroke:none;fill-rule:nonzero;fill:rgb(99.607843%,78.823531%,1.960784%);fill-opacity:1;" d="M 38.304688 22.609375 C 38.445312 22.65625 38.589844 22.703125 38.734375 22.753906 C 38.734375 31.496094 38.734375 40.238281 38.734375 49.246094 C 38.640625 49.246094 38.546875 49.246094 38.449219 49.246094 C 38.304688 49.53125 38.304688 49.53125 38.160156 49.824219 C 38.015625 49.824219 37.875 49.824219 37.726562 49.824219 C 37.726562 49.964844 37.726562 50.109375 37.726562 50.257812 C 37.585938 50.257812 37.441406 50.257812 37.296875 50.257812 C 37.304688 50.363281 37.3125 50.46875 37.324219 50.578125 C 37.292969 51.046875 37.191406 51.222656 36.863281 51.550781 C 36.722656 51.550781 36.578125 51.550781 36.433594 51.550781 C 36.410156 48.0625 36.390625 44.570312 36.378906 41.078125 C 36.375 39.457031 36.367188 37.835938 36.355469 36.214844 C 36.347656 34.804688 36.339844 33.390625 36.335938 31.976562 C 36.335938 31.230469 36.332031 30.480469 36.324219 29.734375 C 36.320312 29.027344 36.316406 28.324219 36.316406 27.621094 C 36.316406 27.359375 36.316406 27.101562 36.3125 26.84375 C 36.28125 24.652344 36.28125 24.652344 36.914062 23.917969 C 37.082031 23.761719 37.257812 23.613281 37.441406 23.472656 C 37.605469 23.304688 37.773438 23.136719 37.933594 22.96875 C 38.058594 22.847656 38.179688 22.730469 38.304688 22.609375 Z M 38.304688 22.609375 "/>
<path style=" stroke:none;fill-rule:nonzero;fill:rgb(6.666667%,34.509805%,61.176473%);fill-opacity:1;" d="M 33.265625 22.753906 C 33.953125 22.863281 33.953125 22.863281 34.226562 23.15625 C 34.402344 23.449219 34.554688 23.742188 34.703125 24.046875 C 34.777344 24.152344 34.851562 24.253906 34.925781 24.359375 C 35.1875 24.867188 35.195312 25.296875 35.1875 25.855469 C 35.1875 25.964844 35.1875 26.070312 35.1875 26.183594 C 35.191406 26.546875 35.1875 26.90625 35.183594 27.269531 C 35.183594 27.527344 35.183594 27.789062 35.183594 28.046875 C 35.183594 28.753906 35.183594 29.457031 35.179688 30.164062 C 35.175781 30.898438 35.175781 31.636719 35.175781 32.371094 C 35.175781 33.765625 35.171875 35.160156 35.167969 36.554688 C 35.164062 38.144531 35.160156 39.734375 35.15625 41.320312 C 35.152344 44.585938 35.144531 47.855469 35.136719 51.121094 C 34.992188 51.074219 34.851562 51.023438 34.703125 50.976562 C 34.632812 51.117188 34.632812 51.117188 34.558594 51.265625 C 34.480469 51.136719 34.480469 51.136719 34.394531 51.003906 C 33.96875 50.347656 33.554688 49.777344 32.976562 49.246094 C 33.023438 49.105469 33.070312 48.960938 33.121094 48.816406 C 33.136719 48.46875 33.140625 48.125 33.144531 47.773438 C 33.144531 47.613281 33.144531 47.613281 33.144531 47.449219 C 33.148438 47.09375 33.148438 46.734375 33.148438 46.375 C 33.152344 46.117188 33.152344 45.859375 33.152344 45.605469 C 33.15625 44.90625 33.160156 44.207031 33.164062 43.507812 C 33.167969 42.78125 33.171875 42.050781 33.175781 41.320312 C 33.183594 39.941406 33.1875 38.558594 33.195312 37.175781 C 33.203125 35.605469 33.210938 34.03125 33.21875 32.457031 C 33.234375 29.222656 33.25 25.988281 33.265625 22.753906 Z M 33.265625 22.753906 "/>
<path style=" stroke:none;fill-rule:nonzero;fill:rgb(3.921569%,26.666668%,47.450981%);fill-opacity:1;" d="M 62.785156 44.929688 C 62.832031 44.929688 62.878906 44.929688 62.929688 44.929688 C 62.972656 45.898438 63.015625 46.867188 63.054688 47.835938 C 63.070312 48.160156 63.089844 48.484375 63.113281 48.808594 C 63.152344 49.542969 63.140625 49.984375 62.667969 50.570312 C 62.28125 50.960938 61.972656 51.109375 61.414062 51.140625 C 61.269531 51.140625 61.125 51.140625 60.976562 51.140625 C 60.8125 51.140625 60.648438 51.140625 60.480469 51.144531 C 60.300781 51.144531 60.121094 51.144531 59.9375 51.144531 C 59.554688 51.148438 59.171875 51.152344 58.789062 51.15625 C 58.691406 51.15625 58.589844 51.15625 58.488281 51.15625 C 53.410156 51.179688 53.410156 51.179688 48.382812 51.839844 C 48.226562 51.871094 48.066406 51.902344 47.902344 51.933594 C 44.058594 52.722656 40.132812 54.011719 37.375 56.941406 C 36.96875 57.351562 36.613281 57.355469 36.054688 57.382812 C 35.382812 57.378906 35.019531 57.3125 34.515625 56.863281 C 34.335938 56.679688 34.15625 56.492188 33.984375 56.304688 C 31.777344 54.144531 28.710938 53.125 25.792969 52.367188 C 25.3125 52.21875 24.980469 52.054688 24.625 51.695312 C 25.59375 51.761719 26.4375 51.980469 27.359375 52.296875 C 27.777344 52.433594 27.777344 52.433594 28.171875 52.40625 C 28.613281 52.417969 28.746094 52.578125 29.089844 52.847656 C 29.398438 52.980469 29.710938 53.101562 30.023438 53.21875 C 30.542969 53.40625 31.046875 53.597656 31.535156 53.855469 C 31.535156 53.949219 31.535156 54.046875 31.535156 54.144531 C 31.640625 54.160156 31.742188 54.171875 31.851562 54.1875 C 32.59375 54.371094 33.023438 54.769531 33.550781 55.296875 C 33.671875 55.363281 33.796875 55.433594 33.921875 55.503906 C 34.273438 55.726562 34.273438 55.726562 34.480469 56.089844 C 34.777344 56.5625 35.046875 56.6875 35.566406 56.878906 C 36.265625 56.96875 36.710938 56.832031 37.296875 56.449219 C 37.386719 56.3125 37.472656 56.179688 37.566406 56.042969 C 38.046875 55.320312 38.742188 54.910156 39.457031 54.433594 C 39.597656 54.433594 39.742188 54.433594 39.886719 54.433594 C 39.960938 54.21875 39.960938 54.21875 40.03125 54 C 40.246094 54.070312 40.246094 54.070312 40.464844 54.144531 C 40.464844 54.050781 40.464844 53.953125 40.464844 53.855469 C 41.460938 53.386719 42.449219 52.929688 43.488281 52.558594 C 43.601562 52.511719 43.714844 52.46875 43.828125 52.417969 C 44.214844 52.269531 44.601562 52.15625 45 52.046875 C 45.132812 52.011719 45.265625 51.976562 45.402344 51.9375 C 45.769531 51.84375 46.136719 51.769531 46.511719 51.695312 C 47.015625 51.585938 47.523438 51.476562 48.027344 51.367188 C 48.355469 51.300781 48.683594 51.242188 49.015625 51.195312 C 49.140625 51.171875 49.261719 51.144531 49.390625 51.121094 C 49.441406 51.023438 49.488281 50.929688 49.535156 50.832031 C 49.699219 50.832031 49.859375 50.835938 50.023438 50.835938 C 50.238281 50.839844 50.449219 50.839844 50.660156 50.839844 C 50.820312 50.84375 50.820312 50.84375 50.984375 50.84375 C 51.449219 50.847656 51.824219 50.835938 52.273438 50.6875 C 52.53125 50.671875 52.789062 50.664062 53.046875 50.660156 C 53.207031 50.65625 53.363281 50.652344 53.527344 50.648438 C 53.699219 50.648438 53.871094 50.644531 54.046875 50.640625 C 54.222656 50.640625 54.398438 50.636719 54.578125 50.632812 C 55.136719 50.625 55.699219 50.617188 56.257812 50.605469 C 56.636719 50.601562 57.019531 50.59375 57.398438 50.589844 C 58.328125 50.574219 59.261719 50.558594 60.191406 50.542969 C 60.191406 50.640625 60.191406 50.734375 60.191406 50.832031 C 60.90625 50.773438 61.550781 50.71875 62.207031 50.398438 C 62.207031 50.210938 62.207031 50.019531 62.207031 49.824219 C 62.421875 49.753906 62.421875 49.753906 62.640625 49.679688 C 62.6875 48.113281 62.734375 46.542969 62.785156 44.929688 Z M 62.785156 44.929688 "/>
<path style=" stroke:none;fill-rule:nonzero;fill:rgb(6.27451%,30.19608%,50.980395%);fill-opacity:1;" d="M 62.496094 19.296875 C 62.929688 19.441406 62.929688 19.441406 63.070312 19.726562 C 63.085938 20.101562 63.089844 20.472656 63.089844 20.84375 C 63.089844 20.960938 63.089844 21.078125 63.089844 21.199219 C 63.089844 21.589844 63.089844 21.984375 63.089844 22.378906 C 63.089844 22.660156 63.089844 22.941406 63.089844 23.222656 C 63.089844 23.984375 63.085938 24.75 63.085938 25.515625 C 63.085938 26.3125 63.085938 27.109375 63.085938 27.910156 C 63.085938 29.421875 63.082031 30.933594 63.082031 32.449219 C 63.082031 34.167969 63.078125 35.890625 63.078125 37.613281 C 63.078125 41.15625 63.074219 44.699219 63.070312 48.238281 C 62.929688 48.289062 62.785156 48.335938 62.640625 48.382812 C 62.59375 38.785156 62.546875 29.1875 62.496094 19.296875 Z M 62.496094 19.296875 "/>
<path style=" stroke:none;fill-rule:nonzero;fill:rgb(2.352941%,27.843139%,50.980395%);fill-opacity:1;" d="M 9.070312 20.015625 C 9.121094 20.015625 9.167969 20.015625 9.214844 20.015625 C 9.214844 20.164062 9.214844 20.308594 9.214844 20.460938 C 9.21875 24.023438 9.222656 27.585938 9.234375 31.144531 C 9.238281 32.867188 9.242188 34.589844 9.246094 36.3125 C 9.246094 37.816406 9.246094 39.316406 9.253906 40.816406 C 9.257812 41.613281 9.257812 42.40625 9.257812 43.203125 C 9.257812 43.949219 9.257812 44.699219 9.261719 45.445312 C 9.265625 45.71875 9.265625 45.996094 9.261719 46.269531 C 9.261719 46.644531 9.265625 47.019531 9.269531 47.394531 C 9.265625 47.503906 9.265625 47.613281 9.261719 47.726562 C 9.261719 48.0625 9.261719 48.0625 9.359375 48.527344 C 9.703125 48.824219 9.703125 48.824219 10.078125 48.960938 C 9.9375 49.742188 9.9375 49.742188 9.792969 50.542969 C 10.175781 50.550781 10.175781 50.550781 10.566406 50.554688 C 11.410156 50.566406 12.257812 50.578125 13.105469 50.59375 C 13.617188 50.601562 14.128906 50.609375 14.644531 50.617188 C 15.234375 50.625 15.824219 50.632812 16.414062 50.640625 C 16.597656 50.644531 16.78125 50.648438 16.96875 50.648438 C 17.898438 50.664062 18.804688 50.714844 19.726562 50.832031 C 19.996094 50.835938 20.261719 50.832031 20.527344 50.824219 C 21.101562 50.816406 21.585938 50.875 22.140625 51.039062 C 22.734375 51.1875 23.34375 51.25 23.953125 51.328125 C 24.078125 51.355469 24.207031 51.378906 24.335938 51.40625 C 24.382812 51.503906 24.429688 51.597656 24.480469 51.695312 C 23.609375 51.875 22.867188 51.785156 21.996094 51.640625 C 20.261719 51.367188 18.578125 51.246094 16.824219 51.25 C 16.433594 51.246094 16.042969 51.246094 15.652344 51.242188 C 15.042969 51.238281 14.433594 51.238281 13.820312 51.238281 C 13.421875 51.238281 13.019531 51.238281 12.621094 51.234375 C 12.242188 51.234375 11.867188 51.234375 11.492188 51.234375 C 10.554688 51.222656 9.929688 51.175781 9.238281 50.511719 C 8.820312 49.867188 8.910156 49.066406 8.917969 48.328125 C 8.917969 48.207031 8.917969 48.085938 8.917969 47.960938 C 8.917969 47.554688 8.921875 47.148438 8.925781 46.746094 C 8.925781 46.453125 8.925781 46.164062 8.929688 45.871094 C 8.933594 45.082031 8.9375 44.292969 8.941406 43.503906 C 8.949219 42.675781 8.953125 41.851562 8.957031 41.027344 C 8.964844 39.460938 8.972656 37.898438 8.980469 36.335938 C 8.992188 34.558594 9 32.777344 9.011719 30.996094 C 9.03125 27.335938 9.050781 23.675781 9.070312 20.015625 Z M 9.070312 20.015625 "/>
<path style=" stroke:none;fill-rule:nonzero;fill:rgb(7.843138%,47.450981%,74.117649%);fill-opacity:1;" d="M 14.542969 14.976562 C 14.890625 15.492188 14.867188 15.714844 14.859375 16.328125 C 14.859375 16.421875 14.859375 16.515625 14.859375 16.613281 C 14.859375 16.929688 14.855469 17.242188 14.851562 17.558594 C 14.851562 17.785156 14.847656 18.011719 14.847656 18.234375 C 14.84375 18.847656 14.839844 19.460938 14.832031 20.074219 C 14.828125 20.714844 14.820312 21.355469 14.816406 21.996094 C 14.808594 23.210938 14.800781 24.421875 14.789062 25.636719 C 14.777344 27.019531 14.765625 28.398438 14.757812 29.78125 C 14.734375 32.621094 14.710938 35.460938 14.6875 38.304688 C 14.640625 38.304688 14.59375 38.304688 14.542969 38.304688 C 14.496094 39.492188 14.449219 40.679688 14.398438 41.902344 C 14.351562 41.902344 14.304688 41.902344 14.257812 41.902344 C 14.25 38.476562 14.246094 35.050781 14.242188 31.625 C 14.238281 30.035156 14.238281 28.445312 14.234375 26.855469 C 14.230469 25.46875 14.230469 24.082031 14.230469 22.695312 C 14.230469 21.960938 14.226562 21.226562 14.226562 20.492188 C 14.222656 19.800781 14.222656 19.113281 14.222656 18.421875 C 14.222656 18.167969 14.222656 17.914062 14.222656 17.660156 C 14.21875 17.3125 14.21875 16.96875 14.222656 16.621094 C 14.21875 16.519531 14.21875 16.421875 14.21875 16.316406 C 14.222656 15.796875 14.261719 15.417969 14.542969 14.976562 Z M 14.542969 14.976562 "/>
<path style=" stroke:none;fill-rule:nonzero;fill:rgb(9.803922%,34.509805%,54.11765%);fill-opacity:1;" d="M 34.273438 23.472656 C 34.4375 23.613281 34.601562 23.753906 34.765625 23.894531 C 34.90625 24.011719 34.90625 24.011719 35.046875 24.132812 C 35.175781 24.246094 35.304688 24.359375 35.425781 24.480469 C 35.441406 24.851562 35.445312 25.21875 35.445312 25.589844 C 35.449219 25.707031 35.449219 25.824219 35.449219 25.949219 C 35.449219 26.34375 35.453125 26.742188 35.453125 27.140625 C 35.453125 27.425781 35.457031 27.707031 35.457031 27.992188 C 35.460938 28.765625 35.464844 29.539062 35.46875 30.308594 C 35.472656 31.117188 35.476562 31.921875 35.480469 32.730469 C 35.484375 34.257812 35.492188 35.789062 35.5 37.316406 C 35.503906 39.058594 35.511719 40.796875 35.523438 42.539062 C 35.539062 46.117188 35.554688 49.699219 35.566406 53.28125 C 35.425781 53.234375 35.28125 53.183594 35.136719 53.136719 C 35.046875 52.847656 35.046875 52.847656 34.992188 52.496094 C 34.945312 52.152344 34.945312 52.152344 34.847656 51.839844 C 34.707031 51.746094 34.5625 51.648438 34.414062 51.550781 C 34.414062 51.457031 34.414062 51.363281 34.414062 51.265625 C 34.179688 51.265625 33.941406 51.265625 33.695312 51.265625 C 33.554688 50.90625 33.554688 50.90625 33.40625 50.542969 C 33.550781 50.402344 33.550781 50.402344 33.695312 50.257812 C 33.980469 50.542969 34.265625 50.828125 34.558594 51.121094 C 34.703125 51.074219 34.84375 51.023438 34.992188 50.976562 C 35.003906 47.574219 35.015625 44.171875 35.023438 40.769531 C 35.023438 39.191406 35.027344 37.609375 35.035156 36.03125 C 35.042969 34.652344 35.042969 33.277344 35.046875 31.898438 C 35.046875 31.171875 35.046875 30.441406 35.054688 29.714844 C 35.058594 29.027344 35.058594 28.339844 35.058594 27.652344 C 35.058594 27.402344 35.058594 27.152344 35.0625 26.898438 C 35.0625 26.554688 35.0625 26.210938 35.0625 25.867188 C 35.0625 25.765625 35.066406 25.667969 35.066406 25.566406 C 35.058594 24.851562 34.839844 24.46875 34.414062 23.902344 C 34.367188 23.761719 34.320312 23.617188 34.273438 23.472656 Z M 34.273438 23.472656 "/>
<path style=" stroke:none;fill-rule:nonzero;fill:rgb(2.745098%,27.843139%,53.333336%);fill-opacity:1;" d="M 12.960938 18.289062 C 13.007812 18.289062 13.054688 18.289062 13.105469 18.289062 C 13.105469 18.40625 13.105469 18.527344 13.105469 18.648438 C 13.117188 21.550781 13.128906 24.453125 13.144531 27.351562 C 13.152344 28.757812 13.160156 30.160156 13.164062 31.5625 C 13.167969 32.785156 13.175781 34.007812 13.183594 35.230469 C 13.1875 35.878906 13.1875 36.527344 13.191406 37.175781 C 13.191406 37.785156 13.195312 38.394531 13.199219 39.003906 C 13.203125 39.226562 13.203125 39.449219 13.203125 39.671875 C 13.183594 41.246094 13.183594 41.246094 13.535156 42.769531 C 13.957031 43.046875 14.078125 43.097656 14.550781 43.136719 C 14.664062 43.148438 14.777344 43.160156 14.890625 43.167969 C 15.007812 43.179688 15.125 43.191406 15.246094 43.199219 C 16.640625 43.320312 16.640625 43.320312 17.28125 43.632812 C 17.28125 43.679688 17.28125 43.726562 17.28125 43.777344 C 16.171875 43.796875 15.070312 43.75 13.96875 43.632812 C 13.835938 43.621094 13.707031 43.609375 13.570312 43.601562 C 13.246094 43.488281 13.246094 43.488281 13.085938 43.183594 C 12.9375 42.6875 12.925781 42.269531 12.925781 41.753906 C 12.925781 41.652344 12.925781 41.550781 12.925781 41.449219 C 12.925781 41.109375 12.925781 40.773438 12.925781 40.4375 C 12.925781 40.199219 12.925781 39.957031 12.925781 39.714844 C 12.925781 39.0625 12.929688 38.40625 12.929688 37.75 C 12.933594 37.066406 12.933594 36.382812 12.933594 35.699219 C 12.933594 34.402344 12.9375 33.109375 12.9375 31.8125 C 12.941406 30.339844 12.945312 28.863281 12.945312 27.390625 C 12.949219 24.355469 12.953125 21.320312 12.960938 18.289062 Z M 12.960938 18.289062 "/>
<path style=" stroke:none;fill-rule:nonzero;fill:rgb(100%,81.960785%,20.392157%);fill-opacity:1;" d="M 57.601562 23.761719 C 57.648438 23.761719 57.695312 23.761719 57.742188 23.761719 C 57.742188 29.746094 57.742188 35.734375 57.742188 41.902344 C 57.386719 41.976562 57.386719 41.976562 57.023438 42.046875 C 57.167969 41.976562 57.167969 41.976562 57.3125 41.902344 C 57.3125 41.722656 57.3125 41.542969 57.3125 41.359375 C 57.308594 39.664062 57.304688 37.972656 57.304688 36.277344 C 57.304688 35.410156 57.304688 34.539062 57.300781 33.667969 C 57.300781 32.828125 57.296875 31.988281 57.296875 31.148438 C 57.296875 30.828125 57.296875 30.507812 57.296875 30.1875 C 57.296875 29.738281 57.296875 29.289062 57.296875 28.84375 C 57.296875 28.707031 57.292969 28.574219 57.292969 28.4375 C 57.296875 27.519531 57.296875 27.519531 57.457031 27.359375 C 57.480469 27.09375 57.492188 26.824219 57.5 26.558594 C 57.511719 26.316406 57.511719 26.316406 57.519531 26.066406 C 57.527344 25.898438 57.53125 25.726562 57.535156 25.550781 C 57.542969 25.378906 57.550781 25.207031 57.554688 25.03125 C 57.570312 24.609375 57.585938 24.183594 57.601562 23.761719 Z M 57.601562 23.761719 "/>
<path style=" stroke:none;fill-rule:nonzero;fill:rgb(1.568628%,21.960784%,39.215687%);fill-opacity:1;" d="M 13.914062 50.652344 C 14.027344 50.652344 14.136719 50.652344 14.253906 50.65625 C 14.367188 50.65625 14.480469 50.65625 14.601562 50.65625 C 14.84375 50.65625 15.085938 50.65625 15.332031 50.660156 C 15.699219 50.660156 16.070312 50.660156 16.4375 50.660156 C 16.675781 50.660156 16.914062 50.664062 17.148438 50.664062 C 17.3125 50.664062 17.3125 50.664062 17.480469 50.664062 C 18.144531 50.671875 18.789062 50.71875 19.449219 50.800781 C 19.808594 50.839844 20.164062 50.835938 20.527344 50.824219 C 21.101562 50.816406 21.585938 50.875 22.140625 51.039062 C 22.734375 51.1875 23.34375 51.25 23.953125 51.328125 C 24.078125 51.355469 24.207031 51.378906 24.335938 51.40625 C 24.40625 51.550781 24.40625 51.550781 24.480469 51.695312 C 23.609375 51.875 22.867188 51.785156 21.996094 51.640625 C 19.984375 51.324219 18 51.230469 15.964844 51.183594 C 15.632812 51.175781 15.300781 51.167969 14.96875 51.160156 C 14.820312 51.15625 14.820312 51.15625 14.664062 51.15625 C 14.035156 51.140625 13.4375 51.074219 12.816406 50.976562 C 13.183594 50.609375 13.417969 50.652344 13.914062 50.652344 Z M 13.914062 50.652344 "/>
<path style=" stroke:none;fill-rule:nonzero;fill:rgb(2.745098%,34.117648%,61.960787%);fill-opacity:1;" d="M 59.039062 18.433594 C 59.230469 18.480469 59.421875 18.527344 59.617188 18.574219 C 59.570312 18.765625 59.519531 18.957031 59.472656 19.152344 C 59.378906 19.152344 59.28125 19.152344 59.183594 19.152344 C 59.183594 26.566406 59.183594 33.976562 59.183594 41.617188 C 59.136719 41.617188 59.089844 41.617188 59.039062 41.617188 C 59.039062 33.964844 59.039062 26.316406 59.039062 18.433594 Z M 59.039062 18.433594 "/>
<path style=" stroke:none;fill-rule:nonzero;fill:rgb(8.235294%,30.19608%,49.019608%);fill-opacity:1;" d="M 54.574219 43.488281 C 54.574219 43.628906 54.574219 43.773438 54.574219 43.921875 C 54.496094 43.9375 54.414062 43.953125 54.328125 43.96875 C 53.960938 44.042969 53.59375 44.117188 53.226562 44.191406 C 53.097656 44.214844 52.96875 44.238281 52.835938 44.265625 C 52.714844 44.289062 52.59375 44.316406 52.464844 44.34375 C 52.351562 44.363281 52.242188 44.386719 52.125 44.410156 C 51.808594 44.480469 51.808594 44.480469 51.550781 44.785156 C 51.253906 44.882812 51.253906 44.882812 50.976562 44.929688 C 50.929688 44.878906 50.882812 44.832031 50.832031 44.785156 C 50.691406 44.828125 50.554688 44.871094 50.410156 44.914062 C 50.136719 44.996094 50.136719 44.996094 49.859375 45.082031 C 49.679688 45.136719 49.5 45.191406 49.3125 45.25 C 48.863281 45.347656 48.660156 45.382812 48.238281 45.214844 C 48.382812 44.929688 48.382812 44.929688 48.695312 44.808594 C 48.832031 44.773438 48.96875 44.734375 49.109375 44.695312 C 49.335938 44.632812 49.335938 44.632812 49.566406 44.566406 C 49.730469 44.523438 49.890625 44.476562 50.058594 44.433594 C 50.222656 44.386719 50.382812 44.34375 50.550781 44.296875 C 53.535156 43.488281 53.535156 43.488281 54.574219 43.488281 Z M 54.574219 43.488281 "/>
<path style=" stroke:none;fill-rule:nonzero;fill:rgb(3.137255%,26.274511%,45.09804%);fill-opacity:1;" d="M 19.152344 50.832031 C 21.34375 50.78125 21.34375 50.78125 22.160156 51.039062 C 22.746094 51.195312 23.351562 51.25 23.953125 51.328125 C 24.078125 51.355469 24.207031 51.378906 24.335938 51.40625 C 24.40625 51.550781 24.40625 51.550781 24.480469 51.695312 C 23.75 51.828125 23.132812 51.828125 22.398438 51.726562 C 22.300781 51.714844 22.203125 51.703125 22.101562 51.6875 C 21.792969 51.648438 21.484375 51.605469 21.175781 51.5625 C 20.964844 51.53125 20.757812 51.503906 20.546875 51.476562 C 20.03125 51.40625 19.519531 51.335938 19.007812 51.265625 C 19.054688 51.121094 19.101562 50.980469 19.152344 50.832031 Z M 19.152344 50.832031 "/>
<path style=" stroke:none;fill-rule:nonzero;fill:rgb(5.098039%,28.627452%,52.549022%);fill-opacity:1;" d="M 25.921875 46.222656 C 26.976562 46.28125 27.722656 46.550781 28.65625 47.042969 C 28.777344 47.105469 28.898438 47.164062 29.023438 47.226562 C 29.851562 47.652344 30.625 48.140625 31.390625 48.671875 C 31.320312 48.886719 31.320312 48.886719 31.246094 49.105469 C 31.117188 49.027344 30.984375 48.949219 30.851562 48.871094 C 29.25 47.945312 27.597656 47.144531 25.921875 46.367188 C 25.921875 46.320312 25.921875 46.273438 25.921875 46.222656 Z M 25.921875 46.222656 "/>
<path style=" stroke:none;fill-rule:nonzero;fill:rgb(3.921569%,27.058825%,50.196081%);fill-opacity:1;" d="M 24.625 51.695312 C 25.59375 51.761719 26.4375 51.980469 27.359375 52.296875 C 27.769531 52.410156 28.089844 52.421875 28.511719 52.414062 C 28.707031 52.554688 28.898438 52.699219 29.089844 52.847656 C 29.417969 53.007812 29.753906 53.140625 30.097656 53.28125 C 29.875 53.449219 29.875 53.449219 29.519531 53.566406 C 29.152344 53.460938 28.828125 53.339844 28.476562 53.191406 C 27.542969 52.808594 26.625 52.53125 25.640625 52.328125 C 24.941406 52.171875 24.941406 52.171875 24.625 51.695312 Z M 24.625 51.695312 "/>
<path style=" stroke:none;fill-rule:nonzero;fill:rgb(100%,78.823531%,22.352941%);fill-opacity:1;" d="M 57.601562 16.414062 C 57.648438 16.414062 57.695312 16.414062 57.742188 16.414062 C 57.742188 18.746094 57.742188 21.074219 57.742188 23.472656 C 57.695312 23.472656 57.648438 23.472656 57.601562 23.472656 C 57.601562 22.855469 57.601562 22.238281 57.601562 21.601562 C 57.503906 21.601562 57.410156 21.601562 57.3125 21.601562 C 57.308594 21.078125 57.304688 20.554688 57.304688 20.035156 C 57.300781 19.886719 57.300781 19.738281 57.300781 19.582031 C 57.300781 19.441406 57.296875 19.300781 57.296875 19.152344 C 57.296875 19.023438 57.296875 18.890625 57.296875 18.753906 C 57.3125 18.433594 57.3125 18.433594 57.457031 18.144531 C 57.488281 17.851562 57.515625 17.554688 57.535156 17.261719 C 57.550781 17.105469 57.5625 16.945312 57.574219 16.785156 C 57.582031 16.664062 57.589844 16.542969 57.601562 16.414062 Z M 57.601562 16.414062 "/>
<path style=" stroke:none;fill-rule:nonzero;fill:rgb(8.235294%,27.058825%,43.137255%);fill-opacity:1;" d="M 44.785156 46.367188 C 44.832031 46.511719 44.878906 46.652344 44.929688 46.800781 C 44.832031 46.800781 44.738281 46.800781 44.640625 46.800781 C 44.640625 46.894531 44.640625 46.988281 44.640625 47.089844 C 44.554688 47.117188 44.472656 47.148438 44.386719 47.179688 C 43.488281 47.515625 42.695312 47.945312 41.882812 48.457031 C 41.449219 48.683594 41.089844 48.761719 40.609375 48.816406 C 41.128906 48.210938 41.761719 47.882812 42.453125 47.511719 C 42.566406 47.449219 42.679688 47.386719 42.792969 47.320312 C 43.445312 46.964844 44.097656 46.648438 44.785156 46.367188 Z M 44.785156 46.367188 "/>
<path style=" stroke:none;fill-rule:nonzero;fill:rgb(5.098039%,28.235295%,48.235294%);fill-opacity:1;" d="M 58.894531 42.769531 C 58.832031 43.109375 58.832031 43.109375 58.609375 43.488281 C 58.183594 43.640625 57.753906 43.703125 57.3125 43.777344 C 57.167969 43.824219 57.027344 43.871094 56.878906 43.921875 C 56.507812 43.90625 56.144531 43.886719 55.773438 43.855469 C 55.621094 43.847656 55.621094 43.847656 55.464844 43.835938 C 55.21875 43.816406 54.96875 43.796875 54.71875 43.777344 C 55.273438 43.210938 55.929688 43.242188 56.671875 43.191406 C 56.917969 43.171875 57.164062 43.152344 57.410156 43.132812 C 57.519531 43.125 57.628906 43.117188 57.742188 43.109375 C 58.210938 43.023438 58.394531 42.769531 58.894531 42.769531 Z M 58.894531 42.769531 "/>
<path style=" stroke:none;fill-rule:nonzero;fill:rgb(4.313726%,28.627452%,51.372552%);fill-opacity:1;" d="M 17.566406 43.777344 C 18.601562 43.707031 19.542969 43.792969 20.546875 44.035156 C 20.648438 44.0625 20.75 44.085938 20.855469 44.109375 C 21.144531 44.183594 21.144531 44.183594 21.601562 44.351562 C 21.648438 44.496094 21.695312 44.636719 21.742188 44.785156 C 21.574219 44.761719 21.40625 44.742188 21.230469 44.722656 C 21.125 44.707031 21.023438 44.695312 20.914062 44.683594 C 20.621094 44.644531 20.328125 44.597656 20.035156 44.550781 C 19.597656 44.457031 19.597656 44.457031 19.296875 44.640625 C 19.054688 44.496094 18.816406 44.351562 18.574219 44.207031 C 18.242188 44.105469 17.90625 44.007812 17.566406 43.921875 C 17.566406 43.871094 17.566406 43.824219 17.566406 43.777344 Z M 17.566406 43.777344 "/>
<path style=" stroke:none;fill-rule:nonzero;fill:rgb(9.019608%,40.392157%,71.764708%);fill-opacity:1;" d="M 14.542969 41.183594 C 14.589844 41.375 14.640625 41.5625 14.6875 41.761719 C 14.835938 41.765625 14.984375 41.773438 15.136719 41.78125 C 16.304688 41.84375 17.429688 41.941406 18.574219 42.191406 C 18.117188 42.464844 17.828125 42.503906 17.300781 42.449219 C 17.171875 42.4375 17.039062 42.421875 16.902344 42.410156 C 16.765625 42.394531 16.628906 42.378906 16.488281 42.363281 C 16.28125 42.34375 16.28125 42.34375 16.074219 42.320312 C 15.503906 42.261719 14.953125 42.199219 14.398438 42.046875 C 14.394531 41.808594 14.394531 41.566406 14.398438 41.328125 C 14.449219 41.28125 14.496094 41.234375 14.542969 41.183594 Z M 14.542969 41.183594 "/>
<path style=" stroke:none;fill-rule:nonzero;fill:rgb(6.666667%,46.666667%,73.333335%);fill-opacity:1;" d="M 14.542969 14.976562 C 14.96875 15.613281 14.84375 16.175781 14.804688 16.921875 C 14.796875 17.128906 14.796875 17.128906 14.792969 17.339844 C 14.785156 17.472656 14.777344 17.605469 14.773438 17.742188 C 14.765625 17.863281 14.761719 17.988281 14.753906 18.113281 C 14.675781 18.488281 14.550781 18.625 14.257812 18.863281 C 14.246094 18.324219 14.242188 17.785156 14.238281 17.242188 C 14.234375 17.089844 14.234375 16.9375 14.230469 16.78125 C 14.230469 16.632812 14.230469 16.484375 14.226562 16.332031 C 14.226562 16.195312 14.226562 16.0625 14.222656 15.921875 C 14.257812 15.539062 14.347656 15.304688 14.542969 14.976562 Z M 14.542969 14.976562 "/>
<path style=" stroke:none;fill-rule:nonzero;fill:rgb(99.607843%,83.92157%,17.647059%);fill-opacity:1;" d="M 43.632812 45.070312 C 43.773438 45.070312 43.917969 45.070312 44.0625 45.070312 C 44.0625 45.167969 44.0625 45.261719 44.0625 45.359375 C 44.253906 45.40625 44.445312 45.453125 44.640625 45.503906 C 44.492188 45.582031 44.339844 45.660156 44.1875 45.742188 C 43.992188 45.84375 43.792969 45.949219 43.597656 46.054688 C 43.496094 46.105469 43.398438 46.15625 43.296875 46.207031 C 42.800781 46.472656 42.355469 46.746094 41.902344 47.089844 C 41.808594 47.089844 41.714844 47.089844 41.617188 47.089844 C 41.617188 46.945312 41.617188 46.804688 41.617188 46.65625 C 41.804688 46.609375 41.996094 46.5625 42.191406 46.511719 C 42.191406 46.371094 42.191406 46.226562 42.191406 46.078125 C 42.429688 46.03125 42.667969 45.984375 42.910156 45.9375 C 42.960938 45.792969 43.007812 45.652344 43.054688 45.503906 C 43.351562 45.40625 43.351562 45.40625 43.632812 45.359375 C 43.632812 45.265625 43.632812 45.167969 43.632812 45.070312 Z M 43.632812 45.070312 "/>
<path style=" stroke:none;fill-rule:nonzero;fill:rgb(1.568628%,20.392157%,34.901962%);fill-opacity:1;" d="M 59.617188 50.6875 C 59.664062 50.78125 59.710938 50.878906 59.761719 50.976562 C 58.773438 51.128906 57.804688 51.136719 56.808594 51.128906 C 56.648438 51.128906 56.488281 51.128906 56.324219 51.128906 C 55.933594 51.125 55.542969 51.121094 55.152344 51.121094 C 55.5 50.769531 55.609375 50.789062 56.089844 50.773438 C 56.285156 50.765625 56.285156 50.765625 56.484375 50.753906 C 56.621094 50.75 56.757812 50.746094 56.898438 50.742188 C 57.097656 50.734375 57.097656 50.734375 57.300781 50.726562 C 58.074219 50.695312 58.84375 50.683594 59.617188 50.6875 Z M 59.617188 50.6875 "/>
<path style=" stroke:none;fill-rule:nonzero;fill:rgb(7.058824%,29.803923%,53.333336%);fill-opacity:1;" d="M 37.152344 50.976562 C 37.578125 51.046875 37.578125 51.046875 38.015625 51.121094 C 38.015625 51.261719 38.015625 51.40625 38.015625 51.550781 C 37.777344 51.597656 37.539062 51.648438 37.296875 51.695312 C 37.34375 51.554688 37.390625 51.410156 37.441406 51.265625 C 37.34375 51.265625 37.25 51.265625 37.152344 51.265625 C 37.152344 51.5 37.152344 51.738281 37.152344 51.984375 C 37.058594 51.984375 36.960938 51.984375 36.863281 51.984375 C 36.871094 52.144531 36.882812 52.304688 36.890625 52.46875 C 36.878906 52.726562 36.878906 52.726562 36.863281 52.992188 C 36.722656 53.085938 36.578125 53.183594 36.433594 53.28125 C 36.433594 52.710938 36.433594 52.140625 36.433594 51.550781 C 36.574219 51.503906 36.71875 51.457031 36.863281 51.40625 C 36.960938 51.265625 37.054688 51.121094 37.152344 50.976562 Z M 37.152344 50.976562 "/>
<path style=" stroke:none;fill-rule:nonzero;fill:rgb(6.27451%,31.37255%,51.372552%);fill-opacity:1;" d="M 39.933594 49.285156 C 40.015625 49.320312 40.09375 49.355469 40.175781 49.390625 C 39.855469 49.882812 39.527344 50.109375 39.023438 50.398438 C 38.976562 50.496094 38.929688 50.589844 38.878906 50.6875 C 38.644531 50.792969 38.402344 50.886719 38.160156 50.976562 C 38.160156 50.398438 38.160156 50.398438 38.453125 50.085938 C 38.582031 49.984375 38.710938 49.882812 38.84375 49.777344 C 38.972656 49.675781 39.097656 49.570312 39.230469 49.464844 C 39.601562 49.246094 39.601562 49.246094 39.933594 49.285156 Z M 39.933594 49.285156 "/>
<path style=" stroke:none;fill-rule:nonzero;fill:rgb(5.882353%,27.843139%,44.705883%);fill-opacity:1;" d="M 54.574219 43.488281 C 54.574219 43.628906 54.574219 43.773438 54.574219 43.921875 C 54.253906 43.992188 53.933594 44.066406 53.613281 44.136719 C 53.34375 44.195312 53.34375 44.195312 53.070312 44.257812 C 52.644531 44.335938 52.273438 44.371094 51.839844 44.351562 C 51.886719 44.210938 51.933594 44.066406 51.984375 43.921875 C 52.335938 43.847656 52.6875 43.777344 53.035156 43.703125 C 53.136719 43.683594 53.234375 43.664062 53.339844 43.640625 C 53.757812 43.554688 54.144531 43.488281 54.574219 43.488281 Z M 54.574219 43.488281 "/>
<path style=" stroke:none;fill-rule:nonzero;fill:rgb(100%,85.09804%,19.215687%);fill-opacity:1;" d="M 57.457031 22.753906 C 57.503906 22.753906 57.550781 22.753906 57.601562 22.753906 C 57.78125 23.691406 57.730469 24.597656 57.679688 25.550781 C 57.671875 25.710938 57.664062 25.871094 57.660156 26.035156 C 57.640625 26.429688 57.621094 26.824219 57.601562 27.214844 C 57.550781 27.214844 57.503906 27.214844 57.457031 27.214844 C 57.335938 26.335938 57.296875 25.464844 57.292969 24.578125 C 57.292969 24.433594 57.292969 24.433594 57.292969 24.28125 C 57.292969 23.753906 57.332031 23.265625 57.457031 22.753906 Z M 57.457031 22.753906 "/>
<path style=" stroke:none;fill-rule:nonzero;fill:rgb(11.372549%,44.313726%,68.235296%);fill-opacity:1;" d="M 19.871094 42.625 C 20.800781 42.699219 21.59375 42.871094 22.464844 43.199219 C 22.464844 43.246094 22.464844 43.296875 22.464844 43.34375 C 21.539062 43.40625 20.753906 43.179688 19.871094 42.910156 C 19.871094 42.816406 19.871094 42.722656 19.871094 42.625 Z M 19.871094 42.625 "/>
<path style=" stroke:none;fill-rule:nonzero;fill:rgb(8.627451%,28.627452%,46.666667%);fill-opacity:1;" d="M 47.953125 45.070312 C 48 45.167969 48.046875 45.261719 48.097656 45.359375 C 47.71875 45.925781 47.453125 45.9375 46.800781 46.078125 C 46.304688 46.097656 46.304688 46.097656 45.9375 46.078125 C 46.164062 45.625 46.558594 45.585938 47.023438 45.414062 C 47.285156 45.316406 47.285156 45.316406 47.546875 45.21875 C 47.746094 45.144531 47.746094 45.144531 47.953125 45.070312 Z M 47.953125 45.070312 "/>
<path style=" stroke:none;fill-rule:nonzero;fill:rgb(3.137255%,23.921569%,41.176471%);fill-opacity:1;" d="M 24.625 51.695312 C 25.46875 51.769531 26.253906 51.90625 27.070312 52.128906 C 26.910156 52.355469 26.910156 52.355469 26.640625 52.558594 C 26.230469 52.523438 26.230469 52.523438 25.765625 52.398438 C 25.613281 52.359375 25.460938 52.320312 25.304688 52.28125 C 24.910156 52.128906 24.910156 52.128906 24.625 51.695312 Z M 24.625 51.695312 "/>
<path style=" stroke:none;fill-rule:nonzero;fill:rgb(14.117648%,44.705883%,68.627453%);fill-opacity:1;" d="M 30.960938 47.230469 C 31.789062 47.503906 31.789062 47.503906 32.113281 47.664062 C 32.113281 47.757812 32.113281 47.855469 32.113281 47.953125 C 32.207031 48 32.300781 48.046875 32.398438 48.097656 C 32.398438 48.191406 32.398438 48.285156 32.398438 48.382812 C 32.542969 48.429688 32.683594 48.480469 32.832031 48.527344 C 32.832031 48.621094 32.832031 48.71875 32.832031 48.816406 C 32.363281 48.730469 32.09375 48.578125 31.734375 48.265625 C 31.648438 48.195312 31.5625 48.121094 31.476562 48.046875 C 31.234375 47.792969 31.101562 47.554688 30.960938 47.230469 Z M 30.960938 47.230469 "/>
<path style=" stroke:none;fill-rule:nonzero;fill:rgb(9.411765%,31.37255%,48.627451%);fill-opacity:1;" d="M 42.480469 47.519531 C 42.527344 47.664062 42.574219 47.804688 42.625 47.953125 C 41.964844 48.40625 41.429688 48.753906 40.609375 48.816406 C 41.128906 48.207031 41.78125 47.882812 42.480469 47.519531 Z M 42.480469 47.519531 "/>
<path style=" stroke:none;fill-rule:nonzero;fill:rgb(11.372549%,40.000001%,72.941178%);fill-opacity:1;" d="M 24.046875 43.777344 C 24.253906 43.816406 24.457031 43.859375 24.660156 43.902344 C 24.773438 43.925781 24.886719 43.949219 25.003906 43.972656 C 25.339844 44.0625 25.617188 44.1875 25.921875 44.351562 C 25.921875 44.496094 25.921875 44.636719 25.921875 44.785156 C 25.714844 44.71875 25.511719 44.652344 25.308594 44.585938 C 25.195312 44.550781 25.082031 44.511719 24.964844 44.476562 C 24.644531 44.359375 24.347656 44.222656 24.046875 44.0625 C 24.046875 43.96875 24.046875 43.875 24.046875 43.777344 Z M 24.046875 43.777344 "/>
<path style=" stroke:none;fill-rule:nonzero;fill:rgb(96.862745%,83.529413%,20.784314%);fill-opacity:1;" d="M 39.742188 47.664062 C 39.792969 47.757812 39.839844 47.855469 39.886719 47.953125 C 40.03125 48 40.171875 48.046875 40.320312 48.097656 C 39.679688 48.667969 39.679688 48.667969 39.023438 49.246094 C 38.929688 49.105469 38.832031 48.960938 38.734375 48.816406 C 38.832031 48.816406 38.925781 48.816406 39.023438 48.816406 C 39.023438 48.722656 39.023438 48.625 39.023438 48.527344 C 39.214844 48.480469 39.402344 48.433594 39.601562 48.382812 C 39.648438 48.144531 39.695312 47.910156 39.742188 47.664062 Z M 39.742188 47.664062 "/>
<path style=" stroke:none;fill-rule:nonzero;fill:rgb(94.117647%,80.784315%,20.784314%);fill-opacity:1;" d="M 57.457031 39.886719 C 57.730469 40.351562 57.777344 40.6875 57.761719 41.21875 C 57.757812 41.347656 57.757812 41.476562 57.753906 41.609375 C 57.75 41.753906 57.75 41.753906 57.742188 41.902344 C 57.507812 41.953125 57.269531 42 57.023438 42.046875 C 57.117188 42 57.214844 41.953125 57.3125 41.902344 C 57.378906 41.433594 57.378906 41.433594 57.402344 40.886719 C 57.414062 40.703125 57.421875 40.515625 57.433594 40.324219 C 57.441406 40.179688 57.449219 40.035156 57.457031 39.886719 Z M 57.457031 39.886719 "/>
<path style=" stroke:none;fill-rule:nonzero;fill:rgb(10.588235%,33.333334%,52.941179%);fill-opacity:1;" d="M 35.28125 49.105469 C 35.328125 49.105469 35.375 49.105469 35.425781 49.105469 C 35.472656 50.480469 35.519531 51.859375 35.566406 53.28125 C 35.425781 53.234375 35.28125 53.183594 35.136719 53.136719 C 35.183594 51.804688 35.230469 50.476562 35.28125 49.105469 Z M 35.28125 49.105469 "/>
<path style=" stroke:none;fill-rule:nonzero;fill:rgb(85.490197%,70.588237%,15.294118%);fill-opacity:1;" d="M 38.449219 49.246094 C 38.589844 49.296875 38.734375 49.34375 38.878906 49.390625 C 38.644531 49.65625 38.40625 49.921875 38.167969 50.183594 C 38.101562 50.257812 38.035156 50.335938 37.964844 50.414062 C 37.792969 50.601562 37.617188 50.789062 37.441406 50.976562 C 37.390625 50.976562 37.34375 50.976562 37.296875 50.976562 C 37.296875 50.738281 37.296875 50.5 37.296875 50.257812 C 37.4375 50.257812 37.582031 50.257812 37.726562 50.257812 C 37.726562 50.113281 37.726562 49.972656 37.726562 49.824219 C 37.820312 49.78125 37.914062 49.742188 38.007812 49.699219 C 38.324219 49.5625 38.324219 49.5625 38.449219 49.246094 Z M 38.449219 49.246094 "/>
<path style=" stroke:none;fill-rule:nonzero;fill:rgb(11.372549%,43.921569%,67.843139%);fill-opacity:1;" d="M 16.273438 41.902344 C 16.519531 41.925781 16.769531 41.945312 17.019531 41.96875 C 17.226562 41.984375 17.226562 41.984375 17.4375 42.003906 C 17.824219 42.042969 18.195312 42.109375 18.574219 42.191406 C 18.132812 42.453125 17.851562 42.511719 17.34375 42.453125 C 17.234375 42.441406 17.121094 42.429688 17.007812 42.417969 C 16.652344 42.320312 16.507812 42.183594 16.273438 41.902344 Z M 16.273438 41.902344 "/>
<path style=" stroke:none;fill-rule:nonzero;fill:rgb(6.666667%,28.235295%,53.333336%);fill-opacity:1;" d="M 32.398438 49.390625 C 33.246094 49.914062 33.246094 49.914062 33.40625 50.398438 C 32.90625 50.308594 32.53125 50.113281 32.113281 49.824219 C 32.113281 49.730469 32.113281 49.632812 32.113281 49.535156 C 32.207031 49.488281 32.300781 49.441406 32.398438 49.390625 Z M 32.398438 49.390625 "/>
<path style=" stroke:none;fill-rule:nonzero;fill:rgb(10.980392%,44.313726%,67.450982%);fill-opacity:1;" d="M 28.65625 45.792969 C 29.277344 46.015625 29.816406 46.324219 30.382812 46.65625 C 30.335938 46.75 30.289062 46.847656 30.238281 46.945312 C 29.089844 46.480469 29.089844 46.480469 28.65625 46.078125 C 28.65625 45.984375 28.65625 45.890625 28.65625 45.792969 Z M 28.65625 45.792969 "/>
<path style=" stroke:none;fill-rule:nonzero;fill:rgb(3.921569%,29.019609%,50.588238%);fill-opacity:1;" d="M 49.535156 50.832031 C 50.011719 50.878906 50.488281 50.925781 50.976562 50.976562 C 50.976562 51.023438 50.976562 51.070312 50.976562 51.121094 C 50.691406 51.167969 50.40625 51.214844 50.113281 51.265625 C 50.113281 51.359375 50.113281 51.453125 50.113281 51.550781 C 49.78125 51.550781 49.445312 51.550781 49.105469 51.550781 C 49.246094 51.3125 49.390625 51.078125 49.535156 50.832031 Z M 49.535156 50.832031 "/>
<path style=" stroke:none;fill-rule:nonzero;fill:rgb(4.313726%,25.882354%,44.705883%);fill-opacity:1;" d="M 41.472656 53.425781 C 41.613281 53.472656 41.757812 53.519531 41.902344 53.566406 C 41.667969 53.617188 41.429688 53.664062 41.183594 53.710938 C 41.277344 53.617188 41.375 53.523438 41.472656 53.425781 Z M 40.894531 53.710938 C 40.992188 53.757812 41.085938 53.808594 41.183594 53.855469 C 41.183594 53.949219 41.183594 54.046875 41.183594 54.144531 C 40.898438 54.285156 40.613281 54.429688 40.320312 54.574219 C 40.273438 54.433594 40.226562 54.289062 40.175781 54.144531 C 40.269531 54.144531 40.367188 54.144531 40.464844 54.144531 C 40.464844 54.050781 40.464844 53.953125 40.464844 53.855469 C 40.605469 53.808594 40.75 53.761719 40.894531 53.710938 Z M 40.894531 53.710938 "/>
<path style=" stroke:none;fill-rule:nonzero;fill:rgb(20%,36.470589%,47.058824%);fill-opacity:1;" d="M 37.152344 50.976562 C 37.578125 51.046875 37.578125 51.046875 38.015625 51.121094 C 38.015625 51.261719 38.015625 51.40625 38.015625 51.550781 C 37.777344 51.597656 37.539062 51.648438 37.296875 51.695312 C 37.34375 51.554688 37.390625 51.410156 37.441406 51.265625 C 37.34375 51.265625 37.25 51.265625 37.152344 51.265625 C 37.105469 51.40625 37.058594 51.550781 37.007812 51.695312 C 36.816406 51.648438 36.628906 51.601562 36.433594 51.550781 C 36.574219 51.503906 36.71875 51.457031 36.863281 51.40625 C 36.960938 51.265625 37.054688 51.121094 37.152344 50.976562 Z M 37.152344 50.976562 "/>
<path style=" stroke:none;fill-rule:nonzero;fill:rgb(3.137255%,25.098041%,43.529412%);fill-opacity:1;" d="M 62.207031 50.542969 C 62.207031 50.6875 62.207031 50.828125 62.207031 50.976562 C 61.519531 51.175781 60.890625 51.074219 60.191406 50.976562 C 60.191406 50.929688 60.191406 50.882812 60.191406 50.832031 C 60.328125 50.820312 60.328125 50.820312 60.464844 50.804688 C 60.640625 50.789062 60.640625 50.789062 60.820312 50.769531 C 60.9375 50.757812 61.054688 50.746094 61.175781 50.734375 C 61.574219 50.675781 61.789062 50.542969 62.207031 50.542969 Z M 62.207031 50.542969 "/>
<path style=" stroke:none;fill-rule:nonzero;fill:rgb(12.54902%,45.09804%,69.803923%);fill-opacity:1;" d="M 28.367188 18.71875 C 28.558594 18.828125 28.746094 18.941406 28.933594 19.054688 C 29.039062 19.113281 29.144531 19.175781 29.253906 19.242188 C 29.519531 19.441406 29.519531 19.441406 29.664062 19.871094 C 29.167969 19.695312 28.757812 19.511719 28.367188 19.152344 C 28.367188 19.007812 28.367188 18.867188 28.367188 18.71875 Z M 28.367188 18.71875 "/>
<path style=" stroke:none;fill-rule:nonzero;fill:rgb(11.372549%,39.607844%,74.901962%);fill-opacity:1;" d="M 27.792969 45.214844 C 28.214844 45.40625 28.214844 45.40625 28.65625 45.648438 C 28.703125 45.789062 28.75 45.933594 28.800781 46.078125 C 28.3125 46 28.066406 45.929688 27.648438 45.648438 C 27.695312 45.503906 27.742188 45.363281 27.792969 45.214844 Z M 27.792969 45.214844 "/>
<path style=" stroke:none;fill-rule:nonzero;fill:rgb(3.529412%,29.803923%,53.333336%);fill-opacity:1;" d="M 49.390625 45.359375 C 49.34375 45.453125 49.296875 45.550781 49.246094 45.648438 C 49.105469 45.648438 48.960938 45.648438 48.816406 45.648438 C 48.816406 45.742188 48.816406 45.839844 48.816406 45.9375 C 48.671875 45.9375 48.53125 45.9375 48.382812 45.9375 C 48.335938 45.792969 48.289062 45.652344 48.238281 45.503906 C 48.683594 45.234375 48.902344 45.183594 49.390625 45.359375 Z M 49.390625 45.359375 "/>
<path style=" stroke:none;fill-rule:nonzero;fill:rgb(6.666667%,27.058825%,43.921569%);fill-opacity:1;" d="M 39.601562 49.246094 C 39.925781 49.285156 39.925781 49.285156 40.175781 49.390625 C 40.035156 49.582031 39.890625 49.773438 39.742188 49.96875 C 39.507812 49.921875 39.269531 49.871094 39.023438 49.824219 C 39.277344 49.527344 39.277344 49.527344 39.601562 49.246094 Z M 39.601562 49.246094 "/>
<path style=" stroke:none;fill-rule:nonzero;fill:rgb(8.235294%,26.274511%,42.352942%);fill-opacity:1;" d="M 49.246094 44.640625 C 49.34375 44.78125 49.4375 44.925781 49.535156 45.070312 C 48.898438 45.375 48.898438 45.375 48.484375 45.304688 C 48.402344 45.277344 48.324219 45.246094 48.238281 45.214844 C 48.382812 44.929688 48.382812 44.929688 48.824219 44.765625 C 49.035156 44.703125 49.035156 44.703125 49.246094 44.640625 Z M 49.246094 44.640625 "/>
<path style=" stroke:none;fill-rule:nonzero;fill:rgb(98.823529%,83.529413%,17.647059%);fill-opacity:1;" d="M 54.367188 41.75 C 54.542969 41.753906 54.542969 41.753906 54.71875 41.761719 C 54.671875 41.996094 54.625 42.234375 54.574219 42.480469 C 54.386719 42.480469 54.195312 42.480469 54 42.480469 C 53.917969 42.199219 53.917969 42.199219 53.855469 41.902344 C 54 41.761719 54 41.761719 54.367188 41.75 Z M 54.367188 41.75 "/>
<path style=" stroke:none;fill-rule:nonzero;fill:rgb(100%,89.803922%,10.196079%);fill-opacity:1;" d="M 50.113281 15.695312 C 50.160156 15.886719 50.207031 16.074219 50.257812 16.273438 C 49.78125 16.320312 49.304688 16.367188 48.816406 16.414062 C 48.816406 16.320312 48.816406 16.226562 48.816406 16.128906 C 49.242188 15.984375 49.671875 15.84375 50.113281 15.695312 Z M 50.113281 15.695312 "/>
<path style=" stroke:none;fill-rule:nonzero;fill:rgb(10.588235%,45.09804%,70.980394%);fill-opacity:1;" d="M 18.433594 14.832031 C 18.433594 14.925781 18.433594 15.023438 18.433594 15.121094 C 18.25 15.125 18.070312 15.132812 17.882812 15.136719 C 17.78125 15.140625 17.679688 15.144531 17.574219 15.148438 C 17.28125 15.121094 17.28125 15.121094 16.847656 14.832031 C 17.398438 14.632812 17.867188 14.734375 18.433594 14.832031 Z M 18.433594 14.832031 "/>
<path style=" stroke:none;fill-rule:nonzero;fill:rgb(11.764706%,38.039216%,75.686276%);fill-opacity:1;" d="M 31.246094 20.878906 C 31.886719 21.082031 32.238281 21.398438 32.6875 21.886719 C 32.546875 21.886719 32.402344 21.886719 32.257812 21.886719 C 32.257812 21.792969 32.257812 21.699219 32.257812 21.601562 C 32.167969 21.585938 32.082031 21.570312 31.996094 21.554688 C 31.636719 21.441406 31.484375 21.308594 31.246094 21.023438 C 31.246094 20.976562 31.246094 20.929688 31.246094 20.878906 Z M 31.246094 20.878906 "/>
<path style=" stroke:none;fill-rule:nonzero;fill:rgb(2.352941%,22.352941%,40.784314%);fill-opacity:1;" d="M 9.792969 50.542969 C 10.410156 50.640625 11.027344 50.734375 11.664062 50.832031 C 11.664062 50.878906 11.664062 50.925781 11.664062 50.976562 C 11.40625 51.007812 11.148438 51.039062 10.890625 51.066406 C 10.746094 51.082031 10.601562 51.097656 10.453125 51.117188 C 10.332031 51.117188 10.207031 51.117188 10.078125 51.121094 C 9.984375 51.023438 9.890625 50.929688 9.792969 50.832031 C 9.792969 50.738281 9.792969 50.640625 9.792969 50.542969 Z M 9.792969 50.542969 "/>
<path style=" stroke:none;fill-rule:nonzero;fill:rgb(15.686275%,45.882353%,69.01961%);fill-opacity:1;" d="M 32.257812 21.886719 C 32.785156 21.933594 32.945312 21.996094 33.308594 22.402344 C 33.429688 22.574219 33.429688 22.574219 33.550781 22.753906 C 33.410156 22.800781 33.265625 22.847656 33.121094 22.894531 C 33.03125 22.78125 32.941406 22.671875 32.851562 22.554688 C 32.558594 22.179688 32.558594 22.179688 32.257812 21.886719 Z M 32.257812 21.886719 "/>
<path style=" stroke:none;fill-rule:nonzero;fill:rgb(6.666667%,29.411766%,50.980395%);fill-opacity:1;" d="M 30.097656 48.238281 C 30.476562 48.335938 30.855469 48.429688 31.246094 48.527344 C 31.296875 48.71875 31.34375 48.90625 31.390625 49.105469 C 30.964844 48.867188 30.535156 48.628906 30.097656 48.382812 C 30.097656 48.335938 30.097656 48.289062 30.097656 48.238281 Z M 30.097656 48.238281 "/>
<path style=" stroke:none;fill-rule:nonzero;fill:rgb(10.980392%,37.64706%,74.901962%);fill-opacity:1;" d="M 29.953125 46.800781 C 30.355469 46.828125 30.355469 46.828125 30.816406 46.945312 C 31.085938 47.3125 31.085938 47.3125 31.246094 47.664062 C 30.679688 47.476562 30.351562 47.242188 29.953125 46.800781 Z M 29.953125 46.800781 "/>
<path style=" stroke:none;fill-rule:nonzero;fill:rgb(3.529412%,24.313726%,40.784314%);fill-opacity:1;" d="M 45.359375 52.414062 C 44.980469 52.621094 44.628906 52.757812 44.207031 52.847656 C 44.207031 52.707031 44.207031 52.5625 44.207031 52.414062 C 44.621094 52.210938 44.917969 52.328125 45.359375 52.414062 Z M 45.359375 52.414062 "/>
<path style=" stroke:none;fill-rule:nonzero;fill:rgb(98.823529%,83.529413%,18.039216%);fill-opacity:1;" d="M 45.792969 44.640625 C 45.746094 44.78125 45.695312 44.925781 45.648438 45.070312 C 45.136719 45.242188 45.136719 45.242188 44.640625 45.359375 C 44.59375 45.265625 44.546875 45.167969 44.496094 45.070312 C 44.6875 45.070312 44.875 45.070312 45.070312 45.070312 C 45.070312 44.976562 45.070312 44.882812 45.070312 44.785156 C 45.503906 44.640625 45.503906 44.640625 45.792969 44.640625 Z M 45.792969 44.640625 "/>
<path style=" stroke:none;fill-rule:nonzero;fill:rgb(5.098039%,24.313726%,38.82353%);fill-opacity:1;" d="M 54.574219 43.488281 C 54.574219 43.628906 54.574219 43.773438 54.574219 43.921875 C 54.242188 43.921875 53.910156 43.921875 53.566406 43.921875 C 53.519531 43.824219 53.472656 43.730469 53.425781 43.632812 C 53.820312 43.546875 54.167969 43.488281 54.574219 43.488281 Z M 54.574219 43.488281 "/>
<path style=" stroke:none;fill-rule:nonzero;fill:rgb(3.529412%,27.450982%,58.431375%);fill-opacity:1;" d="M 16.703125 43.488281 C 17.320312 43.535156 17.941406 43.582031 18.574219 43.632812 C 18.574219 43.679688 18.574219 43.726562 18.574219 43.777344 C 17.933594 43.847656 17.933594 43.847656 17.28125 43.921875 C 17.28125 43.824219 17.28125 43.730469 17.28125 43.632812 C 17.089844 43.585938 16.898438 43.535156 16.703125 43.488281 Z M 16.703125 43.488281 "/>
<path style=" stroke:none;fill-rule:nonzero;fill:rgb(4.313726%,31.764707%,62.7451%);fill-opacity:1;" d="M 9.792969 18.433594 C 10.148438 18.574219 10.148438 18.574219 10.511719 18.71875 C 10.511719 18.816406 10.511719 18.910156 10.511719 19.007812 C 10.273438 19.054688 10.035156 19.101562 9.792969 19.152344 C 9.792969 18.910156 9.792969 18.671875 9.792969 18.433594 Z M 9.792969 18.433594 "/>
<path style=" stroke:none;fill-rule:nonzero;fill:rgb(81.960785%,67.843139%,17.647059%);fill-opacity:1;" d="M 36.574219 50.6875 C 36.625 50.78125 36.671875 50.878906 36.71875 50.976562 C 36.816406 50.976562 36.910156 50.976562 37.007812 50.976562 C 36.960938 51.167969 36.914062 51.355469 36.863281 51.550781 C 36.722656 51.550781 36.578125 51.550781 36.433594 51.550781 C 36.480469 51.265625 36.527344 50.980469 36.574219 50.6875 Z M 36.574219 50.6875 "/>
<path style=" stroke:none;fill-rule:nonzero;fill:rgb(3.529412%,28.235295%,50.588238%);fill-opacity:1;" d="M 19.152344 50.832031 C 19.59375 50.925781 19.882812 51.054688 20.304688 51.265625 C 19.875 51.265625 19.449219 51.265625 19.007812 51.265625 C 19.054688 51.121094 19.101562 50.980469 19.152344 50.832031 Z M 19.152344 50.832031 "/>
<path style=" stroke:none;fill-rule:nonzero;fill:rgb(13.333334%,44.313726%,68.235296%);fill-opacity:1;" d="M 24.046875 43.777344 C 24.535156 43.855469 24.78125 43.929688 25.199219 44.207031 C 24.824219 44.34375 24.675781 44.375 24.300781 44.21875 C 24.21875 44.167969 24.132812 44.117188 24.046875 44.0625 C 24.046875 43.96875 24.046875 43.875 24.046875 43.777344 Z M 24.046875 43.777344 "/>
<path style=" stroke:none;fill-rule:nonzero;fill:rgb(3.529412%,29.803923%,48.627451%);fill-opacity:1;" d="M 16.128906 43.34375 C 16.570312 43.4375 16.859375 43.566406 17.28125 43.777344 C 16.804688 43.777344 16.328125 43.777344 15.839844 43.777344 C 15.933594 43.726562 16.03125 43.679688 16.128906 43.632812 C 16.128906 43.535156 16.128906 43.441406 16.128906 43.34375 Z M 16.128906 43.34375 "/>
<path style=" stroke:none;fill-rule:nonzero;fill:rgb(10.980392%,42.745098%,74.901962%);fill-opacity:1;" d="M 19.609375 15.03125 C 19.746094 15.058594 19.878906 15.089844 20.015625 15.121094 C 20.015625 15.214844 20.015625 15.308594 20.015625 15.40625 C 19.472656 15.589844 19.242188 15.460938 18.71875 15.265625 C 19.152344 14.976562 19.152344 14.976562 19.609375 15.03125 Z M 19.609375 15.03125 "/>
</g>
</svg>
