<?xml version="1.0" encoding="UTF-8"?>
<svg version="1.1" xmlns="http://www.w3.org/2000/svg" width="500" height="500">
<path d="M0 0 C23.87256312 8.0622334 44.58058457 19.73316595 64.8125 34.75 C65.43213623 35.20930908 66.05177246 35.66861816 66.69018555 36.1418457 C70.53043721 39.07235554 73.94522449 42.26284778 77.29907227 45.73876953 C79.04277437 47.53365499 79.04277437 47.53365499 81.875 49.75 C82.865 50.595625 83.855 51.44125 84.875 52.3125 C85.4667077 52.75224152 86.05841539 53.19198303 86.66805363 53.64505005 C90.87900759 57.40160859 92.28809387 60.74784171 92.67705142 66.39672947 C92.81897359 70.70164466 92.80050868 74.99817856 92.76147461 79.3046875 C92.76936824 81.24674399 92.78033256 83.18879006 92.79412842 85.1308136 C92.82281147 90.38873411 92.8086415 95.64576256 92.78668666 100.90368271 C92.77103832 106.40371239 92.79492534 111.9035681 92.81459045 117.40356445 C92.84581353 127.8121539 92.8415617 138.22041344 92.82451588 148.62902355 C92.80683633 160.48152991 92.82877831 172.33385977 92.85402286 184.18634033 C92.90505369 208.56178584 92.90641082 232.93703115 92.875 257.3125 C93.865 257.6425 94.855 257.9725 95.875 258.3125 C96.535 257.9825 97.195 257.6525 97.875 257.3125 C97.87305177 255.80836422 97.87305177 255.80836422 97.87106419 254.27384186 C97.84105457 229.86956633 97.85122163 205.46555926 97.90346622 181.06131744 C97.92780224 169.25954798 97.93910448 157.45803526 97.91967773 145.65625 C97.90277758 135.36925357 97.91037884 125.08261626 97.94734758 114.79566717 C97.96606678 109.34915525 97.97255326 103.90325064 97.94969368 98.45674133 C97.9285555 93.32810603 97.94022693 88.20058245 97.97684479 83.07204437 C97.98452561 81.19194794 97.9803152 79.31175864 97.96318626 77.43172455 C97.82879024 61.45413294 97.82879024 61.45413294 102.30247498 56.26965332 C103.46068931 55.24579641 104.64766176 54.25238524 105.875 53.3125 C106.55046875 52.58160156 107.2259375 51.85070312 107.921875 51.09765625 C121.09319249 37.77529154 136.77681414 26.59838951 153.03955078 17.35791016 C154.80512772 16.3522969 156.55719911 15.32308369 158.30859375 14.29296875 C179.80725278 1.96476996 215.4188345 -12.7619817 240.875 -8.6875 C244.42923623 -6.15852422 245.51248421 -4.77504738 246.875 -0.6875 C246.96822613 1.74566907 247.00538727 4.14967098 246.99525452 6.58268738 C246.99653615 7.70134208 246.99653615 7.70134208 246.99784368 8.84259588 C246.99949443 11.34845728 246.99398371 13.85425215 246.98852539 16.36010742 C246.98824341 18.15363056 246.98840147 19.94715381 246.9889679 21.74067688 C246.98925543 26.61638686 246.98336579 31.49207236 246.97639394 36.36777663 C246.97015309 41.46070339 246.96955602 46.55363068 246.96836853 51.64656067 C246.96525738 61.29377568 246.95704688 70.94097939 246.94701904 80.58818942 C246.93585122 91.56991068 246.93034576 102.55163246 246.92532361 113.53335798 C246.9148641 136.12641159 246.89726882 158.71945516 246.875 181.3125 C243.85360642 182.89580761 241.55672337 183.63261336 238.1484375 183.953125 C237.21233643 184.05077148 236.27623535 184.14841797 235.31176758 184.24902344 C233.79619263 184.40419434 233.79619263 184.40419434 232.25 184.5625 C190.56299059 189.35213887 147.94005626 204.07838214 116.5625 232.75 C116.0048999 233.25821289 115.4472998 233.76642578 114.87280273 234.29003906 C112.41208152 236.60372996 110.95982751 238.05801746 109.875 241.3125 C110.46023438 240.79042969 111.04546875 240.26835937 111.6484375 239.73046875 C137.12819439 217.88521172 170.73180909 204.51951501 202.875 196.3125 C203.68710937 196.10399414 204.49921875 195.89548828 205.3359375 195.68066406 C216.76144829 192.82909508 228.26138278 191.44624444 239.9777832 190.35058594 C241.08855225 190.24262695 242.19932129 190.13466797 243.34375 190.0234375 C244.83551758 189.88881104 244.83551758 189.88881104 246.35742188 189.75146484 C249.11260138 189.44554162 249.11260138 189.44554162 251.875 187.3125 C252.3851284 185.16412894 252.3851284 185.16412894 252.38575745 182.62390137 C252.42115348 181.63354134 252.45654951 180.6431813 252.49301815 179.62281036 C252.5153832 178.52976341 252.53774824 177.43671646 252.56079102 176.31054688 C252.59409043 175.15725639 252.62738985 174.00396591 252.66169834 172.81572723 C253.02852448 158.43450103 252.96744273 144.04871925 252.91053081 129.66433144 C252.89655956 125.70424985 252.89032766 121.74415714 252.88368225 117.78405762 C252.85980817 104.3755362 252.82326569 90.9670627 252.77905273 77.55859375 C252.75454176 70.10039957 252.73716699 62.64222232 252.72749335 55.18399382 C252.72096103 50.486199 252.70543426 45.78854753 252.68317592 41.09080219 C252.67148497 38.1888287 252.66808116 35.28689035 252.66707802 32.38489532 C252.66389486 30.39355787 252.6507046 28.40224437 252.63726807 26.41094971 C252.63857224 25.23413635 252.6398764 24.057323 252.64122009 22.84484863 C252.63807769 21.81855598 252.63493528 20.79226334 252.63169765 19.73487091 C252.875 17.3125 252.875 17.3125 254.875 15.3125 C257.82553247 15.22353922 260.62559821 15.26927651 263.5625 15.4375 C264.35333984 15.46070312 265.14417969 15.48390625 265.95898438 15.5078125 C271.66031216 15.80912132 275.2778459 16.85471455 279.875 20.3125 C283.64185544 25.70683551 284.45836437 29.5867085 284.39639282 36.07958984 C284.40404392 36.93817785 284.41169501 37.79676586 284.41957796 38.68137169 C284.44014302 41.54564593 284.43227268 44.4091112 284.42431641 47.2734375 C284.43301459 49.33205911 284.44338221 51.39067425 284.45529175 53.44927979 C284.48204931 59.03187498 284.48323189 64.61419919 284.47816515 70.19684601 C284.47602462 74.85903538 284.48579506 79.52117005 284.49537599 84.1833477 C284.51755766 95.18151829 284.51844539 106.17955225 284.50634766 117.17773438 C284.49426096 128.52220612 284.5189098 139.8661822 284.56148779 151.21056938 C284.59671283 160.95429585 284.60872384 170.69786449 284.60221231 180.4416523 C284.59858581 186.25963956 284.60386692 192.07727306 284.63164139 197.89520264 C284.65677879 203.36522917 284.65292954 208.83448221 284.62681961 214.30449677 C284.62208495 216.31081147 284.62756894 218.31718046 284.64406586 220.32343292 C284.6649822 223.06498986 284.64882409 225.80394644 284.6234436 228.54541016 C284.63819217 229.33734457 284.65294074 230.12927898 284.66813624 230.94521141 C284.56402572 236.2986656 283.07241989 239.06699317 279.45415628 242.99181175 C276.33935105 245.59680197 273.21099915 245.44087614 269.33496094 245.4543457 C268.19289688 245.46156647 267.05083282 245.46878723 265.87416077 245.47622681 C264.01059181 245.48219376 264.01059181 245.48219376 262.109375 245.48828125 C259.45204886 245.50811103 256.7947543 245.52907385 254.13745117 245.55151367 C253.4463346 245.55697205 252.75521803 245.56243042 252.04315853 245.5680542 C216.77842873 245.71430741 216.77842873 245.71430741 181.875 250.3125 C180.77172363 250.53067383 179.66844727 250.74884766 178.53173828 250.97363281 C151.8392389 256.43970003 124.58603839 265.39910994 105.43359375 285.74609375 C102.61153708 288.58229607 100.14436574 288.61531692 96.25 288.8125 C91.57863851 288.77901354 89.06977054 288.31579239 85.5625 285.1875 C84.31190444 283.91656955 83.08129766 282.62554967 81.875 281.3125 C46.93920604 247.09703169 -13.67873242 245.71407231 -58.96313477 246.02758789 C-61.68426025 246.04519054 -64.40454767 246.04685742 -67.12568665 246.0316925 C-69.64992312 246.01871822 -72.17443217 246.02940409 -74.69841003 246.0677948 C-81.2008164 246.01125714 -85.24050593 245.57370725 -89.95710754 240.89338684 C-92.81004294 237.03158603 -92.2789176 232.60043791 -92.28562927 228.03315735 C-92.29071709 227.1786926 -92.29580491 226.32422786 -92.30104691 225.44387025 C-92.31679074 222.56975954 -92.32530156 219.695674 -92.33374023 216.8215332 C-92.34327711 214.76513 -92.3531682 212.70872841 -92.36338806 210.65232849 C-92.39479147 203.88933216 -92.41504148 197.12632345 -92.43359375 190.36328125 C-92.43689107 189.213022 -92.44018839 188.06276275 -92.44358563 186.87764716 C-92.47436641 176.03137714 -92.50107647 165.18510438 -92.51800442 154.33880329 C-92.53991653 140.46124642 -92.58189838 126.5840762 -92.65144199 112.70667392 C-92.69867123 102.95115726 -92.72293655 93.19574495 -92.7302013 83.44011754 C-92.73515902 77.61248785 -92.75025211 71.78529381 -92.7899456 65.95778847 C-92.82680595 60.47392583 -92.83522328 54.99074778 -92.82193947 49.50678444 C-92.82199343 47.49603029 -92.83229333 45.48524585 -92.8536911 43.47460556 C-92.88138965 40.72449994 -92.87185731 37.97688816 -92.85325623 35.22676086 C-92.87005115 34.43501081 -92.88684608 33.64326076 -92.90414995 32.82751828 C-92.79895537 26.58440452 -90.40567768 22.78493209 -86.125 18.3125 C-81.88324771 15.62172856 -76.78408762 15.83928557 -71.875 15.625 C-70.63363281 15.55442383 -70.63363281 15.55442383 -69.3671875 15.48242188 C-67.28828456 15.37847673 -65.20631978 15.33988579 -63.125 15.3125 C-61.25722104 17.18027896 -61.99622233 20.33191544 -61.99369812 22.82173157 C-61.99158241 23.50988408 -61.98946669 24.19803659 -61.98728687 24.90704221 C-61.98125981 27.23011737 -61.98228893 29.55313863 -61.9831543 31.8762207 C-61.98012458 33.53488254 -61.97660365 35.19354354 -61.97262573 36.85220337 C-61.96472172 40.43282985 -61.95958617 44.0134463 -61.95633507 47.59407997 C-61.95043886 53.25352168 -61.93391169 58.91290003 -61.91499329 64.5723114 C-61.90865547 66.5076532 -61.90232985 68.44299503 -61.89601612 70.37833691 C-61.89285031 71.34773311 -61.8896845 72.31712931 -61.88642275 73.31590116 C-61.84430015 86.49761748 -61.81136736 99.67930486 -61.79907227 112.86108398 C-61.79070135 121.74421636 -61.76824535 130.62719264 -61.7297166 139.51024693 C-61.70992035 144.21423904 -61.69756306 148.91799763 -61.70255089 153.62203407 C-61.70718546 158.04703963 -61.69345757 162.47160244 -61.66553879 166.89651871 C-61.65860642 168.52189493 -61.65852236 170.14731674 -61.66573906 171.77269173 C-61.67458964 173.98976426 -61.65899791 176.2053648 -61.63725281 178.4223175 C-61.63486445 179.66359563 -61.6324761 180.90487375 -61.63001537 182.18376637 C-61.02962207 185.90339716 -60.10581241 187.07743059 -57.125 189.3125 C-54.11830571 190.11329211 -54.11830571 190.11329211 -50.71875 190.33203125 C-49.43129883 190.46327393 -48.14384766 190.5945166 -46.81738281 190.72973633 C-46.1343811 190.79335358 -45.45137939 190.85697083 -44.74768066 190.92251587 C-0.44071906 195.1489908 51.06715135 211.69177746 83.875 243.3125 C72.0482649 225.44764276 52.00347675 213.96029656 32.875 205.3125 C32.15795898 204.9829834 31.44091797 204.6534668 30.70214844 204.31396484 C4.57600816 192.4120565 -23.12623803 186.43762742 -51.48999023 182.75317383 C-54.125 182.3125 -54.125 182.3125 -55.125 181.3125 C-55.23148898 178.96069536 -55.27278623 176.63790767 -55.27217102 174.28523254 C-55.27584771 173.54132143 -55.2795244 172.79741032 -55.2833125 172.03095645 C-55.29439293 169.51908459 -55.29820055 167.00725402 -55.30200195 164.49536133 C-55.30826341 162.70201484 -55.31490992 160.90866966 -55.32191467 159.11532593 C-55.33935625 154.22877901 -55.34988541 149.34224191 -55.3581202 144.45567155 C-55.36326456 141.40442816 -55.3693406 138.35318786 -55.37563133 135.30194664 C-55.39469377 125.76050434 -55.40892163 116.21906982 -55.4172433 106.67761213 C-55.42701509 95.65444267 -55.45332872 84.63147405 -55.49374419 73.60837537 C-55.52388773 65.09537897 -55.53871058 56.58244017 -55.54202431 48.06939143 C-55.5443772 42.98189346 -55.55336818 37.89460979 -55.57848549 32.80716896 C-55.60173981 28.01944694 -55.60601007 23.23208069 -55.59572411 18.44431686 C-55.59522796 16.68752422 -55.60157159 14.93071422 -55.61528015 13.17397499 C-55.63296069 10.77378481 -55.62591265 8.3748766 -55.61274719 5.97468567 C-55.62371644 5.2808013 -55.63468568 4.58691693 -55.64598733 3.87200576 C-55.58069314 -1.06480953 -54.20979012 -3.88236992 -51.125 -7.6875 C-37.67242536 -14.41378732 -12.91360764 -4.28998243 0 0 Z " fill="#0E5193" transform="translate(154.125,109.6875)"/>
<path d="M0 0 C2.82573858 4.33952711 2.89110122 7.95210105 2.87025452 12.95768738 C2.87153615 14.07634208 2.87153615 14.07634208 2.87284368 15.21759588 C2.87449443 17.72345728 2.86898371 20.22925215 2.86352539 22.73510742 C2.86324341 24.52863056 2.86340147 26.32215381 2.8639679 28.11567688 C2.86425543 32.99138686 2.85836579 37.86707236 2.85139394 42.74277663 C2.84515309 47.83570339 2.84455602 52.92863068 2.84336853 58.02156067 C2.84025738 67.66877568 2.83204688 77.31597939 2.82201904 86.96318942 C2.81085122 97.94491068 2.80534576 108.92663246 2.80032361 119.90835798 C2.7898641 142.50141159 2.77226882 165.09445516 2.75 187.6875 C-0.27139358 189.27080761 -2.56827663 190.00761336 -5.9765625 190.328125 C-6.91266357 190.42577148 -7.84876465 190.52341797 -8.81323242 190.62402344 C-10.32880737 190.77919434 -10.32880737 190.77919434 -11.875 190.9375 C-57.68723156 196.20110725 -108.29039649 213.74249671 -138.25 250.6875 C-140.375 253.0625 -140.375 253.0625 -142.25 254.6875 C-143.24 254.6875 -144.23 254.6875 -145.25 254.6875 C-145.41356823 230.44401277 -145.53698412 206.20060831 -145.6126852 181.9566803 C-145.64876988 170.69961087 -145.69796069 159.44288443 -145.77807617 148.18603516 C-145.84787686 138.37381129 -145.89301484 128.56183582 -145.90861946 118.74937057 C-145.91774032 113.55426023 -145.93915425 108.35986048 -145.9901104 103.16497803 C-146.03770686 98.27286511 -146.05226418 93.38175386 -146.04175377 88.48943138 C-146.04367586 86.69634745 -146.05755184 84.90322922 -146.08443832 83.11034584 C-146.30161886 67.8778287 -146.30161886 67.8778287 -141.82826233 62.69628906 C-140.6669689 61.65709327 -139.47795126 60.64701343 -138.25 59.6875 C-137.57453125 58.95660156 -136.8990625 58.22570312 -136.203125 57.47265625 C-123.03180751 44.15029154 -107.34818586 32.97338951 -91.08544922 23.73291016 C-89.31987228 22.7272969 -87.56780089 21.69808369 -85.81640625 20.66796875 C-69.23684656 11.16058007 -18.28862743 -13.01306183 0 0 Z " fill="#FEDD23" transform="translate(398.25,103.3125)"/>
<path d="M0 0 C23.87256312 8.0622334 44.58058457 19.73316595 64.8125 34.75 C65.43213623 35.20930908 66.05177246 35.66861816 66.69018555 36.1418457 C71.11780326 39.52057668 75.01959947 43.29862821 78.875 47.3125 C77.885 47.8075 77.885 47.8075 76.875 48.3125 C76.875 108.3725 76.875 168.4325 76.875 230.3125 C75.885 230.6425 74.895 230.9725 73.875 231.3125 C71.62536464 229.73896799 69.58749327 228.14315278 67.5 226.375 C34.05685395 199.15534539 -9.92538759 187.85566203 -51.9140625 182.671875 C-54.125 182.3125 -54.125 182.3125 -55.125 181.3125 C-55.23148898 178.96069536 -55.27278623 176.63790767 -55.27217102 174.28523254 C-55.27584771 173.54132143 -55.2795244 172.79741032 -55.2833125 172.03095645 C-55.29439293 169.51908459 -55.29820055 167.00725402 -55.30200195 164.49536133 C-55.30826341 162.70201484 -55.31490992 160.90866966 -55.32191467 159.11532593 C-55.33935625 154.22877901 -55.34988541 149.34224191 -55.3581202 144.45567155 C-55.36326456 141.40442816 -55.3693406 138.35318786 -55.37563133 135.30194664 C-55.39469377 125.76050434 -55.40892163 116.21906982 -55.4172433 106.67761213 C-55.42701509 95.65444267 -55.45332872 84.63147405 -55.49374419 73.60837537 C-55.52388773 65.09537897 -55.53871058 56.58244017 -55.54202431 48.06939143 C-55.5443772 42.98189346 -55.55336818 37.89460979 -55.57848549 32.80716896 C-55.60173981 28.01944694 -55.60601007 23.23208069 -55.59572411 18.44431686 C-55.59522796 16.68752422 -55.60157159 14.93071422 -55.61528015 13.17397499 C-55.63296069 10.77378481 -55.62591265 8.3748766 -55.61274719 5.97468567 C-55.62371644 5.2808013 -55.63468568 4.58691693 -55.64598733 3.87200576 C-55.58069314 -1.06480953 -54.20979012 -3.88236992 -51.125 -7.6875 C-37.67242536 -14.41378732 -12.91360764 -4.28998243 0 0 Z " fill="#2078C2" transform="translate(154.125,109.6875)"/>
<path d="M0 0 C0.99 0.33 1.98 0.66 3 1 C3 61.72 3 122.44 3 185 C2.34 185 1.68 185 1 185 C0.01 186.98 0.01 186.98 -1 189 C-1.99 189 -2.98 189 -4 189 C-4 189.99 -4 190.98 -4 192 C-4.99 192 -5.98 192 -7 192 C-6.938125 192.7425 -6.87625 193.485 -6.8125 194.25 C-7.03353711 197.49187763 -7.72162458 198.72162458 -10 201 C-10.99 201 -11.98 201 -13 201 C-13.16356823 176.75651277 -13.28698412 152.51310831 -13.3626852 128.2691803 C-13.39876988 117.01211087 -13.44796069 105.75538443 -13.52807617 94.49853516 C-13.59787686 84.68631129 -13.64301484 74.87433582 -13.65861946 65.06187057 C-13.66774032 59.86676023 -13.68915425 54.67236048 -13.7401104 49.47747803 C-13.78770686 44.58536511 -13.80226418 39.69425386 -13.79175377 34.80193138 C-13.79367586 33.00884745 -13.80755184 31.21572922 -13.83443832 29.42284584 C-14.05160722 14.1911451 -14.05160722 14.1911451 -9.66517639 9.08911133 C-8.47405338 8.02415643 -7.25256888 6.99195472 -6 6 C-4.84342885 4.84397737 -3.69681497 3.67786871 -2.5625 2.5 C-1.716875 1.675 -0.87125 0.85 0 0 Z " fill="#FEC905" transform="translate(266,157)"/>
<path d="M0 0 C4.7890625 0.7734375 4.7890625 0.7734375 6.6875 2.8125 C7.90442735 4.84071225 8.96861095 6.87276007 10 9 C10.50818425 9.71184794 11.0163685 10.42369589 11.53995228 11.15711498 C13.35200429 14.68539384 13.40925015 17.67862446 13.36076355 21.54866028 C13.36332682 22.30022248 13.3658901 23.05178469 13.36853105 23.82612151 C13.37346516 26.33978557 13.35698253 28.85284652 13.34057617 31.36645508 C13.33972982 33.17012518 13.3402052 34.97379632 13.34190369 36.77746582 C13.34276474 41.67173229 13.32512111 46.56577837 13.30418181 51.4599936 C13.2854334 56.57558721 13.28366602 61.69118581 13.28010559 66.80680847 C13.27077974 76.49295776 13.24615861 86.17900552 13.21605712 95.8651101 C13.18252996 106.8928133 13.16603133 117.92052134 13.15097082 128.94826281 C13.11960956 151.6322315 13.06683851 174.31611006 13 197 C12.01 196.67 11.02 196.34 10 196 C9.505 196.99 9.505 196.99 9 198 C8.43732422 197.11248047 8.43732422 197.11248047 7.86328125 196.20703125 C4.90563287 191.64018376 2.02320969 187.6682206 -2 184 C-1.67 183.01 -1.34 182.02 -1 181 C-0.89500129 178.58004116 -0.84518535 176.18814171 -0.84178162 173.76777649 C-0.83437465 172.65524711 -0.83437465 172.65524711 -0.82681805 171.52024239 C-0.81142669 169.02822703 -0.803078 166.53623747 -0.79467773 164.04418945 C-0.7851005 162.26051607 -0.77509051 160.47684497 -0.76467896 158.69317627 C-0.7376071 153.84434955 -0.71660988 148.99551308 -0.69667697 144.14665246 C-0.67483149 139.08173351 -0.64743577 134.01684471 -0.62062073 128.95195007 C-0.57067438 119.35788092 -0.52574275 109.76379506 -0.48259836 100.16969317 C-0.43324258 89.24840883 -0.3783183 78.32715474 -0.32291877 67.40589964 C-0.20906891 44.93729464 -0.10223641 22.46866063 0 0 Z " fill="#11589C" transform="translate(231,158)"/>
<path d="M0 0 C0.33 0 0.66 0 1 0 C1.32180872 6.73401874 1.61091575 13.46857266 1.87548828 20.20507812 C1.97577319 22.45617936 2.11964176 24.70531631 2.27734375 26.953125 C2.54542961 32.05329495 2.46702063 35.12056972 -0.8125 39.1875 C-3.48045692 41.89498221 -5.63162145 42.92830152 -9.50592041 43.13130188 C-10.50717957 43.13478134 -11.50843872 43.1382608 -12.54003906 43.1418457 C-13.68210312 43.14906647 -14.82416718 43.15628723 -16.00083923 43.16372681 C-17.24321854 43.16770477 -18.48559784 43.17168274 -19.765625 43.17578125 C-22.42295114 43.19561103 -25.0802457 43.21657385 -27.73754883 43.23901367 C-28.4286654 43.24447205 -29.11978197 43.24993042 -29.83184147 43.2555542 C-65.09657127 43.40180741 -65.09657127 43.40180741 -100 48 C-101.10327637 48.21817383 -102.20655273 48.43634766 -103.34326172 48.66113281 C-130.0357611 54.12720003 -157.28896161 63.08660994 -176.44140625 83.43359375 C-179.26346292 86.26979607 -181.73063426 86.30281692 -185.625 86.5 C-190.29636149 86.46651354 -192.80522946 86.00329239 -196.3125 82.875 C-197.56309556 81.60406955 -198.79370234 80.31304967 -200 79 C-215.31636798 63.99943342 -236.62995409 56.91685844 -256.87207031 51.66674805 C-260.20561556 50.6222423 -262.5198458 49.4801542 -265 47 C-258.2549766 47.45728972 -252.41628131 48.98795284 -246.015625 51.16015625 C-243.09746299 52.13122805 -243.09746299 52.13122805 -240.359375 51.93359375 C-237.30556439 52.01954537 -236.36729177 53.12294962 -234 55 C-231.8569778 55.91186677 -229.68719737 56.76236702 -227.5 57.5625 C-223.89580366 58.88927411 -220.39358399 60.1950791 -217 62 C-217 62.66 -217 63.32 -217 64 C-216.278125 64.103125 -215.55625 64.20625 -214.8125 64.3125 C-209.66137973 65.57166273 -206.66285725 68.33714275 -203 72 C-202.154375 72.474375 -201.30875 72.94875 -200.4375 73.4375 C-198 75 -198 75 -196.5625 77.5 C-194.50037739 80.79939617 -192.61604673 81.65284533 -189 83 C-184.15865174 83.60516853 -181.07604466 82.65829 -177 80 C-176.38125 79.071875 -175.7625 78.14375 -175.125 77.1875 C-171.77551204 72.16326807 -166.96488772 69.30992515 -162 66 C-161.01 66 -160.02 66 -159 66 C-158.505 64.515 -158.505 64.515 -158 63 C-156.515 63.495 -156.515 63.495 -155 64 C-155 63.34 -155 62.68 -155 62 C-148.07825269 58.73960378 -141.20720036 55.57400013 -134 53 C-133.21625 52.67644531 -132.4325 52.35289062 -131.625 52.01953125 C-128.94227271 50.97757913 -126.27888444 50.18295917 -123.5 49.4375 C-122.5821875 49.18871094 -121.664375 48.93992187 -120.71875 48.68359375 C-118.15423799 48.0387811 -115.59521365 47.50495107 -113 47 C-109.48978513 46.24458534 -105.98111259 45.48228783 -102.47265625 44.71875 C-100.20286062 44.24896103 -97.91700887 43.84975846 -95.62109375 43.53125 C-94.75613281 43.3559375 -93.89117187 43.180625 -93 43 C-92.67 42.34 -92.34 41.68 -92 41 C-90.87980469 41.01160156 -89.75960937 41.02320313 -88.60546875 41.03515625 C-87.13281417 41.04453622 -85.66015778 41.0536362 -84.1875 41.0625 C-83.08051758 41.07506836 -83.08051758 41.07506836 -81.95117188 41.08789062 C-78.70077932 41.10259828 -76.10595105 41.03531702 -73 40 C-71.20596945 39.88408552 -69.40813644 39.82347129 -67.6105957 39.79467773 C-66.50968094 39.77473251 -65.40876617 39.75478729 -64.27449036 39.73423767 C-63.08691635 39.71752518 -61.89934235 39.70081268 -60.67578125 39.68359375 C-59.45924362 39.66281265 -58.24270599 39.64203156 -56.98930359 39.62062073 C-53.09709404 39.55515283 -49.20481615 39.49625285 -45.3125 39.4375 C-42.67642518 39.39431218 -40.04035731 39.3506978 -37.40429688 39.30664062 C-30.93627049 39.19947422 -24.46817589 39.09770255 -18 39 C-18 39.66 -18 40.32 -18 41 C-13.02906176 40.58846263 -8.55491614 40.20399168 -4 38 C-4 36.68 -4 35.36 -4 34 C-2.515 33.505 -2.515 33.505 -1 33 C-0.67 22.11 -0.34 11.22 0 0 Z " fill="#0A4479" transform="translate(436,312)"/>
<path d="M0 0 C3 1 3 1 4 3 C4.0956388 5.59471753 4.13014033 8.16246122 4.12025452 10.75735474 C4.12110894 11.56760695 4.12196337 12.37785917 4.12284368 13.21266448 C4.12449807 15.94274243 4.11897777 18.67275969 4.11352539 21.40283203 C4.11324348 23.35384113 4.11340132 25.30485034 4.1139679 27.25585938 C4.11425574 32.56549819 4.10836117 37.87511458 4.10139394 43.18474817 C4.09515816 48.72878564 4.09455642 54.27282358 4.09336853 59.81686401 C4.09025588 70.32117829 4.08204337 80.8254822 4.07201904 91.3297919 C4.06085586 103.28607858 4.05534694 115.24236574 4.05032361 127.19865632 C4.03986071 151.79910997 4.02226254 176.3995544 4 201 C3.01 201.33 2.02 201.66 1 202 C0.67 135.34 0.34 68.68 0 0 Z " fill="#104D82" transform="translate(434,134)"/>
<path d="M0 0 C0.33 0 0.66 0 1 0 C1.00054477 1.01767362 1.00108953 2.03534723 1.00165081 3.08385944 C1.01603172 27.82018111 1.058988 52.55632652 1.13209057 77.29254627 C1.16677721 89.25470338 1.19210091 101.21674482 1.19555664 113.17895508 C1.19859143 123.6024683 1.21901639 134.02577571 1.26052457 144.44920939 C1.28190038 149.97089568 1.29443168 155.49228902 1.28615379 161.01401711 C1.27864264 166.20730984 1.29431645 171.40000759 1.32806015 176.59319115 C1.33632897 178.50279359 1.33600184 180.41245481 1.32659721 182.322052 C1.31505275 184.92287485 1.33397257 187.52172235 1.36076355 190.12239075 C1.35009029 190.88405999 1.33941703 191.64572922 1.32842034 192.43047935 C1.31745829 194.77918133 1.31745829 194.77918133 2 198 C4.39069356 200.06187418 4.39069356 200.06187418 7 201 C6.01 206.445 6.01 206.445 5 212 C7.65567017 212.03758423 7.65567017 212.03758423 10.36499023 212.07592773 C16.24430822 212.16015576 22.12355862 212.24840601 28.00277615 212.33933926 C31.56391515 212.39427423 35.12506267 212.44764358 38.6862793 212.49731445 C42.78963223 212.55461795 46.89284987 212.61894774 50.99609375 212.68359375 C52.26206894 212.70030624 53.52804413 212.71701874 54.8323822 212.73423767 C61.29593495 212.84161791 67.58751603 213.18940552 74 214 C75.85420689 214.01687835 77.70935843 214.00257215 79.5625 213.9375 C83.53233608 213.89906452 86.90871193 214.29209205 90.74609375 215.4296875 C94.87367773 216.47410216 99.12154263 216.89507781 103.33984375 217.4375 C104.21769531 217.623125 105.09554687 217.80875 106 218 C106.33 218.66 106.66 219.32 107 220 C100.94888777 221.23998201 95.80947849 220.62179733 89.75 219.625 C77.70916067 217.71543958 66.02745927 216.8740317 53.828125 216.89453125 C51.1158607 216.88364096 48.40364095 216.86620533 45.69140625 216.84960938 C41.45607131 216.82528082 37.22123536 216.80966575 32.98583984 216.82495117 C30.20171247 216.83437296 27.41849976 216.82801262 24.63446045 216.80387878 C22.02685002 216.78145298 19.41892505 216.78135607 16.81134033 216.80659485 C10.29814183 216.71680247 5.96808579 216.37653218 1.14935303 211.77372742 C-1.74473694 207.30745239 -1.12685645 201.74542207 -1.08229065 196.61613464 C-1.07906152 195.77473429 -1.07583239 194.93333393 -1.07250541 194.06643659 C-1.06044782 191.24891576 -1.04107131 188.4314932 -1.02172852 185.61401367 C-1.01158388 183.59359957 -1.0018904 181.57318317 -0.99261475 179.55276489 C-0.96615233 174.06766693 -0.93336897 168.5826227 -0.89946485 163.09756637 C-0.86510348 157.36538167 -0.83653575 151.6331682 -0.80735779 145.9009552 C-0.75122215 135.04610264 -0.68986363 124.19128612 -0.62663645 113.33647281 C-0.55490849 100.9786929 -0.48899117 88.62088415 -0.42356598 76.26306951 C-0.2888505 50.84200891 -0.14682478 25.42099334 0 0 Z " fill="#064782" transform="translate(63,139)"/>
<path d="M0 0 C2.39599953 3.5939993 2.23617609 5.12925357 2.20254517 9.39701843 C2.20017046 10.04886653 2.19779576 10.70071463 2.1953491 11.3723157 C2.18491721 13.56047724 2.16003949 15.74823673 2.13525391 17.9362793 C2.12482972 19.50319882 2.11529413 21.07012447 2.10658264 22.63705444 C2.0803827 26.89510931 2.04171692 31.15297145 2.00085878 35.41090751 C1.96027924 39.85915838 1.93110033 44.30748344 1.90072632 48.7558136 C1.84145623 57.18124851 1.7718924 65.60656592 1.69865549 74.03188974 C1.61578422 83.62301326 1.54434996 93.2142112 1.47388959 102.80543268 C1.32867737 122.53706478 1.16905949 142.26855876 1 162 C0.67 162 0.34 162 0 162 C-0.33 170.25 -0.66 178.5 -1 187 C-1.33 187 -1.66 187 -2 187 C-2.04668818 163.20885568 -2.08197323 139.4177182 -2.10362434 115.62653732 C-2.11394383 104.58027364 -2.12801699 93.5340384 -2.15087891 82.48779297 C-2.17079221 72.86165671 -2.18371155 63.23554105 -2.18817699 53.60938478 C-2.19078786 48.51082196 -2.1969385 43.41231807 -2.21146011 38.31377411 C-2.22501149 33.5171257 -2.22922759 28.72056062 -2.22621536 23.92389488 C-2.22676662 22.16143275 -2.23075859 20.3989679 -2.23841095 18.63652229 C-2.24833396 16.2337137 -2.24597861 13.83122139 -2.24050903 11.42840576 C-2.24633472 10.72801359 -2.2521604 10.02762142 -2.25816262 9.30600524 C-2.23590914 5.69912139 -1.96890487 3.069841 0 0 Z " fill="#1479BD" transform="translate(101,104)"/>
<path d="M0 0 C1.14626322 0.97866338 2.29199788 1.95794587 3.4375 2.9375 C4.39462891 3.75541016 4.39462891 3.75541016 5.37109375 4.58984375 C6.26991149 5.36795695 7.15936528 6.15936528 8 7 C8.11017193 9.57941854 8.15496291 12.13263866 8.15821838 14.71302795 C8.16315636 15.53059285 8.16809434 16.34815775 8.17318195 17.19049734 C8.18863495 19.95129619 8.19693856 22.71207166 8.20532227 25.47290039 C8.21489467 27.44346831 8.22490436 29.41403414 8.23532104 31.38459778 C8.26244531 36.75212272 8.28341401 42.11965652 8.30332303 47.48721242 C8.32513636 53.08999718 8.35254773 58.6927544 8.37937927 64.29551697 C8.42936929 74.91317562 8.47428463 85.53084951 8.51740164 96.14853805 C8.56672021 108.23299279 8.62165823 120.31741991 8.67708123 132.40184796 C8.79099809 157.26787288 8.89781588 182.13392429 9 207 C8.01 206.67 7.02 206.34 6 206 C5.375 204.00390625 5.375 204.00390625 5 201.5625 C4.68428381 199.1571954 4.68428381 199.1571954 4 197 C3.01 196.34 2.02 195.68 1 195 C1 194.34 1 193.68 1 193 C-0.65 193 -2.3 193 -4 193 C-4.99 190.525 -4.99 190.525 -6 188 C-5.01 187.01 -5.01 187.01 -4 186 C-2.02 187.98 -0.04 189.96 2 192 C2.99 191.67 3.98 191.34 5 191 C5.0934248 167.37381097 5.16397018 143.74764961 5.20724869 120.1213131 C5.22787741 109.15128786 5.25600404 98.18137737 5.30175781 87.21142578 C5.34161595 77.65045935 5.36743055 68.08957602 5.37635398 58.52852881 C5.38157044 53.465594 5.39383762 48.40289694 5.42292023 43.3400383 C5.45007308 38.57450659 5.45844522 33.80931052 5.45243073 29.0437088 C5.45353102 27.29497326 5.4614857 25.54622647 5.4768219 23.79755783 C5.49674827 21.40827736 5.49193024 19.02026115 5.48101807 16.63095093 C5.49266943 15.94027539 5.5043208 15.24959985 5.51632524 14.53799474 C5.45507045 9.57001519 3.93644144 6.91619496 1 3 C0.67 2.01 0.34 1.02 0 0 Z " fill="#19588A" transform="translate(238,163)"/>
<path d="M0 0 C0.33 0 0.66 0 1 0 C1.00331015 0.82753029 1.00662029 1.65506058 1.01003075 2.50766754 C1.09129881 22.65584953 1.18340379 42.80395666 1.28752708 62.952034 C1.33762006 72.69554581 1.38406337 82.43904934 1.421875 92.18261719 C1.45484608 100.67644138 1.49470556 109.17020073 1.54279006 117.6639533 C1.56800418 122.16010594 1.58980045 126.65621585 1.60334396 131.15242004 C1.61621053 135.38772429 1.63831423 139.62288163 1.66738319 143.85810471 C1.67642312 145.40923343 1.6821408 146.96038578 1.68421364 148.51153946 C1.55536173 159.44310123 1.55536173 159.44310123 4 170 C6.91827205 171.9455147 7.76464678 172.28038932 11.0546875 172.5625 C11.83457031 172.63726562 12.61445312 172.71203125 13.41796875 172.7890625 C14.22878906 172.85867188 15.03960937 172.92828125 15.875 173 C25.55137003 173.83872228 25.55137003 173.83872228 30 176 C30 176.33 30 176.66 30 177 C22.29737512 177.15648674 14.66288695 176.81349128 7 176 C6.08863281 175.92652344 5.17726563 175.85304688 4.23828125 175.77734375 C2 175 2 175 0.87513924 172.89236164 C-0.16715745 169.44753957 -0.24582446 166.54606952 -0.24050903 162.94487 C-0.24221788 162.24639397 -0.24392673 161.54791794 -0.24568737 160.82827598 C-0.24897426 158.49438012 -0.23799194 156.16077355 -0.22705078 153.8269043 C-0.22648649 152.15131131 -0.22680357 150.47571782 -0.22793579 148.80012512 C-0.22850962 144.25506825 -0.21675039 139.71011694 -0.20278788 135.1650846 C-0.19028558 130.4138389 -0.18911041 125.66259079 -0.18673706 120.91133118 C-0.18052083 111.91581866 -0.16410805 102.92035475 -0.14403808 93.92486364 C-0.12168357 83.6831114 -0.11068677 73.44135684 -0.10064721 63.19958627 C-0.07974196 42.13303038 -0.04456317 21.06651825 0 0 Z " fill="#074788" transform="translate(90,127)"/>
<path d="M0 0 C0.33 0 0.66 0 1 0 C1 41.58 1 83.16 1 126 C-1.475 126.495 -1.475 126.495 -4 127 C-3.01 126.505 -3.01 126.505 -2 126 C-2.00222061 124.74941299 -2.00444122 123.49882599 -2.00672913 122.21034241 C-2.02695845 110.45245469 -2.04197112 98.69457049 -2.05181217 86.93666935 C-2.05704153 80.89112183 -2.06414014 74.8455883 -2.07543945 68.80004883 C-2.08626645 62.97105712 -2.09227643 57.14207891 -2.09487724 51.31307793 C-2.09673183 49.0838239 -2.10035308 46.85457065 -2.10573006 44.62532234 C-2.11293799 41.51460266 -2.11399105 38.40393951 -2.11352539 35.29321289 C-2.11712067 34.36173431 -2.12071594 33.43025574 -2.12442017 32.47055054 C-2.11405216 26.11405216 -2.11405216 26.11405216 -1 25 C-0.84213692 23.14825294 -0.74892644 21.2909089 -0.68359375 19.43359375 C-0.62075195 17.7465332 -0.62075195 17.7465332 -0.55664062 16.02539062 C-0.51732422 14.84138672 -0.47800781 13.65738281 -0.4375 12.4375 C-0.39431641 11.24962891 -0.35113281 10.06175781 -0.30664062 8.83789062 C-0.20016454 5.89205216 -0.09815159 2.9461257 0 0 Z " fill="#FFD134" transform="translate(400,165)"/>
<path d="M0 0 C0.77077377 0.00718552 1.54154755 0.01437103 2.3356781 0.02177429 C3.13275681 0.02223251 3.92983551 0.02269073 4.75106812 0.02316284 C6.44326764 0.0261883 8.1354643 0.03408332 9.82762146 0.0464325 C12.39095692 0.06449942 14.95392671 0.06694338 17.51731873 0.06669617 C19.16510825 0.07161919 20.81289535 0.0774509 22.4606781 0.08427429 C23.59558434 0.08594353 23.59558434 0.08594353 24.75341797 0.08764648 C29.356662 0.12767744 33.846223 0.45966069 38.41389465 1.03672791 C40.93300054 1.31526563 43.39496017 1.27860246 45.92552185 1.18974304 C49.89535793 1.15130756 53.27173378 1.5443351 57.1091156 2.68193054 C61.23669958 3.7263452 65.48456448 4.14732085 69.7028656 4.68974304 C70.58071716 4.87536804 71.45856873 5.06099304 72.36302185 5.25224304 C72.85802185 6.24224304 72.85802185 6.24224304 73.36302185 7.25224304 C67.31190962 8.49222506 62.17250034 7.87404037 56.11302185 6.87724304 C42.13104842 4.65983756 28.36915696 4.0111248 14.24046326 3.69999695 C11.93226322 3.64789635 9.62422146 3.59084508 7.31614685 3.53349304 C6.27372833 3.51312988 6.27372833 3.51312988 5.21025085 3.49235535 C0.84217411 3.38249493 -3.33263928 2.94373683 -7.63697815 2.25224304 C-5.09229678 -0.29243832 -3.46978701 0.01500244 0 0 Z " fill="#043864" transform="translate(96.63697814941406,351.7477569580078)"/>
<path d="M0 0 C1.32 0.33 2.64 0.66 4 1 C3.67 2.32 3.34 3.64 3 5 C2.34 5 1.68 5 1 5 C1 56.48 1 107.96 1 161 C0.67 161 0.34 161 0 161 C0 107.87 0 54.74 0 0 Z " fill="#07579E" transform="translate(410,128)"/>
<path d="M0 0 C0 0.99 0 1.98 0 3 C-0.56509277 3.11069824 -1.13018555 3.22139648 -1.71240234 3.33544922 C-4.26823878 3.84072772 -6.82156878 4.35771005 -9.375 4.875 C-10.26445312 5.04902344 -11.15390625 5.22304688 -12.0703125 5.40234375 C-12.92109375 5.57636719 -13.771875 5.75039063 -14.6484375 5.9296875 C-15.43395996 6.08679199 -16.21948242 6.24389648 -17.02880859 6.40576172 C-19.20870814 6.89342859 -19.20870814 6.89342859 -21 9 C-23.0625 9.6875 -23.0625 9.6875 -25 10 C-25.33 9.67 -25.66 9.34 -26 9 C-26.96421875 9.30035156 -27.9284375 9.60070312 -28.921875 9.91015625 C-30.81679688 10.48056641 -30.81679688 10.48056641 -32.75 11.0625 C-34.00296875 11.44535156 -35.2559375 11.82820313 -36.546875 12.22265625 C-39.6738008 12.92656828 -41.09466046 13.16653785 -44 12 C-43 10 -43 10 -40.82958984 9.17797852 C-39.88293457 8.91428467 -38.9362793 8.65059082 -37.9609375 8.37890625 C-36.38723389 7.93720093 -36.38723389 7.93720093 -34.78173828 7.48657227 C-33.65751465 7.18162842 -32.53329102 6.87668457 -31.375 6.5625 C-30.24175293 6.25046631 -29.10850586 5.93843262 -27.94091797 5.61694336 C-7.2407038 0 -7.2407038 0 0 0 Z " fill="#154D7D" transform="translate(379,302)"/>
<path d="M0 0 C15.21347739 -0.35656588 15.21347739 -0.35656588 20.88671875 1.4296875 C24.95000021 2.52624775 29.17161502 2.90151651 33.33984375 3.4375 C34.21769531 3.623125 35.09554687 3.80875 36 4 C36.495 4.99 36.495 4.99 37 6 C31.91904421 6.91886581 27.64306559 6.92207952 22.53515625 6.22265625 C21.85698349 6.13245712 21.17881073 6.042258 20.48008728 5.94932556 C18.33958009 5.66257893 16.20114564 5.3627835 14.0625 5.0625 C12.6010291 4.86436466 11.13944114 4.66709084 9.67773438 4.47070312 C6.11708241 3.99041451 2.55816518 3.49841632 -1 3 C-0.67 2.01 -0.34 1.02 0 0 Z " fill="#084373" transform="translate(133,353)"/>
<path d="M0 0 C7.34606509 0.3924813 12.52852843 2.27753229 19 5.6875 C19.83789062 6.10966797 20.67578125 6.53183594 21.5390625 6.96679688 C27.30547891 9.92587898 32.68277535 13.29865295 38 17 C37.505 18.485 37.505 18.485 37 20 C36.08863281 19.46632813 35.17726562 18.93265625 34.23828125 18.3828125 C23.11419965 11.95643989 11.65348531 6.39670593 0 1 C0 0.67 0 0.34 0 0 Z " fill="#0D4986" transform="translate(180,321)"/>
<path d="M0 0 C6.7450234 0.45728972 12.58371869 1.98795284 18.984375 4.16015625 C21.84530906 4.95691897 24.06134483 5.05155535 27 5 C28.36538653 5.95577057 29.69481525 6.96352976 31 8 C33.29923985 9.10482954 35.63254283 10.04391153 38 11 C36.453125 12.1640625 36.453125 12.1640625 34 13 C31.44053855 12.24898432 29.18311796 11.42335213 26.75 10.375 C20.27757551 7.73716753 13.89735133 5.80364605 7.05371094 4.38232422 C2.20602013 3.30903019 2.20602013 3.30903019 0 0 Z " fill="#0A4580" transform="translate(171,359)"/>
<path d="M0 0 C0.33 0 0.66 0 1 0 C1 16.17 1 32.34 1 49 C0.67 49 0.34 49 0 49 C0 44.71 0 40.42 0 36 C-0.66 36 -1.32 36 -2 36 C-2.02893932 32.37501666 -2.04677792 28.75006287 -2.0625 25.125 C-2.07087891 24.09246094 -2.07925781 23.05992187 -2.08789062 21.99609375 C-2.09111328 21.00996094 -2.09433594 20.02382812 -2.09765625 19.0078125 C-2.10289307 18.09660645 -2.10812988 17.18540039 -2.11352539 16.24658203 C-2 14 -2 14 -1 12 C-0.77141886 9.9625237 -0.58975722 7.91959697 -0.4375 5.875 C-0.35371094 4.77929688 -0.26992188 3.68359375 -0.18359375 2.5546875 C-0.12300781 1.71164063 -0.06242187 0.86859375 0 0 Z " fill="#FFC939" transform="translate(400,114)"/>
<path d="M0 0 C0.33 0.99 0.66 1.98 1 3 C0.34 3 -0.32 3 -1 3 C-1 3.66 -1 4.32 -1 5 C-1.58265625 5.20753906 -2.1653125 5.41507812 -2.765625 5.62890625 C-9.00873014 7.97497878 -14.50206171 10.95332813 -20.140625 14.51171875 C-23.15439173 16.08035963 -25.6415137 16.62738688 -29 17 C-25.39238529 12.80894356 -20.97734183 10.53280829 -16.1875 7.9375 C-15.40568359 7.50373047 -14.62386719 7.06996094 -13.81835938 6.62304688 C-9.30044212 4.14328778 -4.77309323 1.94364945 0 0 Z " fill="#15456E" transform="translate(311,322)"/>
<path d="M0 0 C-0.4375 2.375 -0.4375 2.375 -2 5 C-4.93776382 6.0734137 -7.92318217 6.49542381 -11 7 C-11.99 7.33 -12.98 7.66 -14 8 C-16.5808926 7.91255992 -19.11691478 7.77131505 -21.6875 7.5625 C-22.7403418 7.48418945 -22.7403418 7.48418945 -23.81445312 7.40429688 C-25.54338054 7.27492135 -27.27175355 7.13817469 -29 7 C-25.16825182 3.08286467 -20.59712949 3.30521553 -15.4375 2.9375 C-13.727265 2.80849796 -12.0175689 2.67208213 -10.30859375 2.52734375 C-9.55376709 2.47312256 -8.79894043 2.41890137 -8.02124023 2.36303711 C-4.76501204 1.7781825 -3.49144144 0 0 0 Z " fill="#0D487B" transform="translate(409,297)"/>
<path d="M0 0 C7.17939302 -0.48950407 13.72688029 0.11776766 20.6875 1.8125 C21.39455078 1.97782227 22.10160156 2.14314453 22.83007812 2.31347656 C24.82421875 2.83203125 24.82421875 2.83203125 28 4 C28.33 4.99 28.66 5.98 29 7 C27.824375 6.855625 26.64875 6.71125 25.4375 6.5625 C24.71175781 6.47355469 23.98601562 6.38460938 23.23828125 6.29296875 C21.19510299 6.02553704 19.15931499 5.70311532 17.125 5.375 C14.09916626 4.72100239 14.09916626 4.72100239 12 6 C10.33333333 5 8.66666667 4 7 3 C4.68308546 2.27833809 2.35151077 1.59940471 0 1 C0 0.67 0 0.34 0 0 Z " fill="#0B4983" transform="translate(122,304)"/>
<path d="M0 0 C0.33 1.32 0.66 2.64 1 4 C2.02738281 4.04898437 3.05476563 4.09796875 4.11328125 4.1484375 C12.21423322 4.57248395 20.05153381 5.26548301 28 7 C24.82436127 8.89524239 22.81258355 9.17860873 19.15625 8.79296875 C18.23972656 8.70080078 17.32320312 8.60863281 16.37890625 8.51367188 C15.42886719 8.40603516 14.47882813 8.29839844 13.5 8.1875 C12.07494141 8.04344727 12.07494141 8.04344727 10.62109375 7.89648438 C6.66096409 7.48153408 2.84880668 7.04801367 -1 6 C-1.042721 4.33388095 -1.04063832 2.66617115 -1 1 C-0.67 0.67 -0.34 0.34 0 0 Z " fill="#1767B7" transform="translate(101,286)"/>
<path d="M0 0 C2.94625849 4.41938773 2.08592779 8.32909977 1.8125 13.5 C1.76512695 14.94439453 1.76512695 14.94439453 1.71679688 16.41796875 C1.67232422 17.34222656 1.62785156 18.26648438 1.58203125 19.21875 C1.54311768 20.06373047 1.5042041 20.90871094 1.46411133 21.77929688 C0.9169832 24.39722292 0.03755032 25.32781525 -2 27 C-2.05811773 23.25006521 -2.09363593 19.50024648 -2.125 15.75 C-2.14175781 14.68652344 -2.15851563 13.62304688 -2.17578125 12.52734375 C-2.18222656 11.50253906 -2.18867187 10.47773437 -2.1953125 9.421875 C-2.20578613 8.47924805 -2.21625977 7.53662109 -2.22705078 6.56542969 C-1.99119213 3.90048059 -1.35661659 2.28136908 0 0 Z " fill="#1177BB" transform="translate(101,104)"/>
<path d="M0 0 C0.99 0 1.98 0 3 0 C3 0.66 3 1.32 3 2 C4.32 2.33 5.64 2.66 7 3 C5.96359375 3.54269531 4.9271875 4.08539063 3.859375 4.64453125 C2.48948764 5.36700609 1.11970127 6.08967243 -0.25 6.8125 C-0.93191406 7.16892578 -1.61382812 7.52535156 -2.31640625 7.89257812 C-5.77545566 9.72285184 -8.87138804 11.63864288 -12 14 C-12.66 14 -13.32 14 -14 14 C-14 13.01 -14 12.02 -14 11 C-12.68 10.67 -11.36 10.34 -10 10 C-10 9.01 -10 8.02 -10 7 C-8.35 6.67 -6.7 6.34 -5 6 C-4.67 5.01 -4.34 4.02 -4 3 C-1.9375 2.3125 -1.9375 2.3125 0 2 C0 1.34 0 0.68 0 0 Z " fill="#FED62D" transform="translate(303,313)"/>
<path d="M0 0 C0.33 0.66 0.66 1.32 1 2 C-5.85983809 3.05728087 -12.56783224 3.11639843 -19.5 3.0625 C-20.60859375 3.05798828 -21.7171875 3.05347656 -22.859375 3.04882812 C-25.57297399 3.03713158 -28.28645761 3.02074086 -31 3 C-28.57076859 0.57076859 -27.83109062 0.71412929 -24.4921875 0.5859375 C-23.13480469 0.52792969 -23.13480469 0.52792969 -21.75 0.46875 C-20.80125 0.4378125 -19.8525 0.406875 -18.875 0.375 C-17.48667969 0.31699219 -17.48667969 0.31699219 -16.0703125 0.2578125 C-10.71010042 0.04582671 -5.36403976 -0.03786381 0 0 Z " fill="#043459" transform="translate(414,352)"/>
<path d="M0 0 C2.97 0.495 2.97 0.495 6 1 C6 1.99 6 2.98 6 4 C4.35 4.33 2.7 4.66 1 5 C1.33 4.01 1.66 3.02 2 2 C1.34 2 0.68 2 0 2 C0 3.65 0 5.3 0 7 C-0.66 7 -1.32 7 -2 7 C-1.938125 8.11375 -1.87625 9.2275 -1.8125 10.375 C-1.9053125 12.169375 -1.9053125 12.169375 -2 14 C-2.99 14.66 -3.98 15.32 -5 16 C-5 12.04 -5 8.08 -5 4 C-4.01 3.67 -3.02 3.34 -2 3 C-1.34 2.01 -0.68 1.02 0 0 Z " fill="#124C88" transform="translate(258,354)"/>
<path d="M0 0 C0.55171875 0.24105469 1.1034375 0.48210937 1.671875 0.73046875 C-0.55569824 4.13044896 -2.8408659 5.71152927 -6.328125 7.73046875 C-6.658125 8.39046875 -6.988125 9.05046875 -7.328125 9.73046875 C-8.97175634 10.45206299 -10.63862886 11.12398296 -12.328125 11.73046875 C-12.328125 7.73046875 -12.328125 7.73046875 -10.28125 5.5546875 C-9.38921875 4.84957031 -8.4971875 4.14445312 -7.578125 3.41796875 C-6.69640625 2.69996094 -5.8146875 1.98195313 -4.90625 1.2421875 C-2.328125 -0.26953125 -2.328125 -0.26953125 0 0 Z " fill="#105083" transform="translate(277.328125,342.26953125)"/>
<path d="M0 0 C0 0.99 0 1.98 0 3 C-2.22771342 3.50643553 -4.45724076 4.0048962 -6.6875 4.5 C-8.54955078 4.91765625 -8.54955078 4.91765625 -10.44921875 5.34375 C-13.42398218 5.89354126 -15.99368602 6.13795705 -19 6 C-18.67 5.01 -18.34 4.02 -18 3 C-15.56318413 2.49645133 -13.12564561 1.99703244 -10.6875 1.5 C-9.99720703 1.35691406 -9.30691406 1.21382813 -8.59570312 1.06640625 C-5.67475227 0.47374956 -2.98891878 0 0 0 Z " fill="#0F4772" transform="translate(379,302)"/>
<path d="M0 0 C0.33 0 0.66 0 1 0 C2.26409621 6.52648193 1.90399722 12.82344458 1.5625 19.4375 C1.51029297 20.55060547 1.45808594 21.66371094 1.40429688 22.81054688 C1.27540537 25.54070323 1.14047673 28.27041935 1 31 C0.67 31 0.34 31 0 31 C-0.82194886 24.8940942 -1.10807961 18.84088301 -1.125 12.6875 C-1.13176758 11.6655957 -1.13176758 11.6655957 -1.13867188 10.62304688 C-1.12785604 6.95647774 -0.86882849 3.56495499 0 0 Z " fill="#FFD931" transform="translate(399,158)"/>
<path d="M0 0 C6.43681228 0.51085812 11.95942424 1.72942897 18 4 C18 4.33 18 4.66 18 5 C11.58518742 5.42765417 6.11404596 3.85743168 0 2 C0 1.34 0 0.68 0 0 Z " fill="#1D71AE" transform="translate(138,296)"/>
<path d="M0 0 C0.33 0.66 0.66 1.32 1 2 C-1.61988425 5.92982637 -3.46244606 6.01686331 -8 7 C-11.4375 7.125 -11.4375 7.125 -14 7 C-12.41861364 3.83722728 -9.67403949 3.56906311 -6.4375 2.375 C-4.64119141 1.70597656 -4.64119141 1.70597656 -2.80859375 1.0234375 C-1.41833984 0.51683594 -1.41833984 0.51683594 0 0 Z " fill="#164977" transform="translate(333,313)"/>
<path d="M0 0 C5.852795 0.51482919 11.3297637 1.45357192 17 3 C15.87890625 4.5703125 15.87890625 4.5703125 14 6 C11.15234375 5.7421875 11.15234375 5.7421875 7.9375 4.875 C6.87402344 4.60429687 5.81054688 4.33359375 4.71484375 4.0546875 C2 3 2 3 0 0 Z " fill="#083D69" transform="translate(171,359)"/>
<path d="M0 0 C5.75 1.875 5.75 1.875 8 3 C8 3.66 8 4.32 8 5 C8.66 5.33 9.32 5.66 10 6 C10 6.66 10 7.32 10 8 C10.99 8.33 11.98 8.66 13 9 C13 9.66 13 10.32 13 11 C9.73829163 10.40369649 7.86775002 9.35630233 5.375 7.1875 C4.78460938 6.68605469 4.19421875 6.18460937 3.5859375 5.66796875 C1.90022301 3.89506213 0.97722325 2.23019761 0 0 Z " fill="#2472AF" transform="translate(215,328)"/>
<path d="M0 0 C0.33 0.99 0.66 1.98 1 3 C-3.58921384 6.15654048 -7.29370646 8.57202798 -13 9 C-9.39299028 4.76568424 -4.85413839 2.5307901 0 0 Z " fill="#18507C" transform="translate(295,330)"/>
<path d="M0 0 C1.41805831 0.28482368 2.83440379 0.57818144 4.25 0.875 C5.03890625 1.03742188 5.8278125 1.19984375 6.640625 1.3671875 C8.96831144 1.99150075 10.89031952 2.84838542 13 4 C13 4.99 13 5.98 13 7 C11.58208592 6.54554036 10.16571954 6.08625056 8.75 5.625 C7.96109375 5.36976563 7.1721875 5.11453125 6.359375 4.8515625 C4.13372042 4.04826333 2.09068328 3.10288338 0 2 C0 1.34 0 0.68 0 0 Z " fill="#1D66BA" transform="translate(167,304)"/>
<path d="M0 0 C0.33 0.66 0.66 1.32 1 2 C1.99 2.33 2.98 2.66 4 3 C-0.455 6.96 -0.455 6.96 -5 11 C-5.66 10.01 -6.32 9.02 -7 8 C-6.34 8 -5.68 8 -5 8 C-5 7.34 -5 6.68 -5 6 C-3.68 5.67 -2.36 5.34 -1 5 C-0.67 3.35 -0.34 1.7 0 0 Z " fill="#F7D535" transform="translate(276,331)"/>
<path d="M0 0 C1.90608098 3.21182149 2.22266247 5.53882603 2.125 9.25 C2.10695313 10.14203125 2.08890625 11.0340625 2.0703125 11.953125 C2.03550781 12.96632813 2.03550781 12.96632813 2 14 C0.35 14.33 -1.3 14.66 -3 15 C-2.34 14.67 -1.68 14.34 -1 14 C-0.52998967 10.72444392 -0.52998967 10.72444392 -0.375 6.9375 C-0.30023438 5.64714844 -0.22546875 4.35679687 -0.1484375 3.02734375 C-0.09945313 2.02832031 -0.05046875 1.02929688 0 0 Z " fill="#F0CE35" transform="translate(399,277)"/>
<path d="M0 0 C0.33 0 0.66 0 1 0 C1.33 9.57 1.66 19.14 2 29 C1.01 28.67 0.02 28.34 -1 28 C-0.67 18.76 -0.34 9.52 0 0 Z " fill="#1B5587" transform="translate(245,341)"/>
<path d="M0 0 C0.99 0.33 1.98 0.66 3 1 C1.35742342 2.83634696 -0.28882695 4.6691407 -1.9375 6.5 C-2.40607422 7.02464844 -2.87464844 7.54929687 -3.35742188 8.08984375 C-4.55095408 9.4121744 -5.77334179 10.70833939 -7 12 C-7.33 12 -7.66 12 -8 12 C-8 10.35 -8 8.7 -8 7 C-7.01 7 -6.02 7 -5 7 C-5 6.01 -5 5.02 -5 4 C-4.360625 3.71125 -3.72125 3.4225 -3.0625 3.125 C-0.84793921 2.17176549 -0.84793921 2.17176549 0 0 Z " fill="#DAB427" transform="translate(267,342)"/>
<path d="M0 0 C1.72945653 0.14235457 3.45855654 0.28904382 5.1875 0.4375 C6.63189453 0.55931641 6.63189453 0.55931641 8.10546875 0.68359375 C10.78649602 0.97666151 13.3662986 1.42703754 16 2 C12.92859569 3.81205858 10.97222701 4.22518386 7.4375 3.8125 C6.67308594 3.73644531 5.90867187 3.66039062 5.12109375 3.58203125 C2.64447867 2.90244442 1.63576439 1.93887729 0 0 Z " fill="#1D70AD" transform="translate(113,291)"/>
<path d="M0 0 C5.875 3.625 5.875 3.625 7 7 C3.51669784 6.35494404 0.90567134 5.01782732 -2 3 C-2 2.34 -2 1.68 -2 1 C-1.34 0.67 -0.68 0.34 0 0 Z " fill="#114888" transform="translate(225,343)"/>
<path d="M0 0 C4.30764815 1.56641751 8.06171464 3.68336156 12 6 C11.67 6.66 11.34 7.32 11 8 C3.01788376 4.77645306 3.01788376 4.77645306 0 2 C0 1.34 0 0.68 0 0 Z " fill="#1C71AC" transform="translate(199,318)"/>
<path d="M0 0 C3.3 0.33 6.6 0.66 10 1 C10 1.33 10 1.66 10 2 C8.02 2.33 6.04 2.66 4 3 C4 3.66 4 4.32 4 5 C1.69 5 -0.62 5 -3 5 C-2.01 3.35 -1.02 1.7 0 0 Z " fill="#0A4A81" transform="translate(344,353)"/>
<path d="M0 0 C0.99 0.33 1.98 0.66 3 1 C1.35 1.33 -0.3 1.66 -2 2 C-1.34 1.34 -0.68 0.68 0 0 Z M-4 2 C-3.34 2.33 -2.68 2.66 -2 3 C-2 3.66 -2 4.32 -2 5 C-3.98 5.99 -5.96 6.98 -8 8 C-8.33 7.01 -8.66 6.02 -9 5 C-8.34 5 -7.68 5 -7 5 C-7 4.34 -7 3.68 -7 3 C-6.01 2.67 -5.02 2.34 -4 2 Z " fill="#0B4272" transform="translate(288,371)"/>
<path d="M0 0 C2.97 0.495 2.97 0.495 6 1 C6 1.99 6 2.98 6 4 C4.35 4.33 2.7 4.66 1 5 C1.33 4.01 1.66 3.02 2 2 C1.34 2 0.68 2 0 2 C-0.33 2.99 -0.66 3.98 -1 5 C-2.32 4.67 -3.64 4.34 -5 4 C-4.01 3.67 -3.02 3.34 -2 3 C-1.34 2.01 -0.68 1.02 0 0 Z " fill="#335D78" transform="translate(258,354)"/>
<path d="M0 0 C0 0.99 0 1.98 0 3 C-4.79300133 4.39151652 -9.15135782 3.68662689 -14 3 C-14 2.67 -14 2.34 -14 2 C-13.06027344 1.90912109 -13.06027344 1.90912109 -12.1015625 1.81640625 C-10.87566406 1.69072266 -10.87566406 1.69072266 -9.625 1.5625 C-8.81289063 1.48128906 -8.00078125 1.40007812 -7.1640625 1.31640625 C-4.39098241 0.91095591 -2.91201214 0 0 0 Z " fill="#08406F" transform="translate(432,351)"/>
<path d="M0 0 C1.31878578 0.76002917 2.6298684 1.53343653 3.9375 2.3125 C4.66839844 2.74175781 5.39929688 3.17101562 6.15234375 3.61328125 C8 5 8 5 9 8 C5.56801397 6.76067171 2.69674368 5.49698489 0 3 C0 2.01 0 1.02 0 0 Z " fill="#2073B2" transform="translate(197,130)"/>
<path d="M0 0 C2.9375 1.3125 2.9375 1.3125 6 3 C6.33 3.99 6.66 4.98 7 6 C3.62537285 5.45276317 1.91765 4.9451 -1 3 C-0.67 2.01 -0.34 1.02 0 0 Z " fill="#1D65BF" transform="translate(193,314)"/>
<path d="M0 0 C-0.33 0.66 -0.66 1.32 -1 2 C-1.99 2 -2.98 2 -4 2 C-4 2.66 -4 3.32 -4 4 C-4.99 4 -5.98 4 -7 4 C-7.33 3.01 -7.66 2.02 -8 1 C-4.93251126 -0.86240388 -3.40254489 -1.2151946 0 0 Z " fill="#094C88" transform="translate(343,315)"/>
<path d="M0 0 C2.25 0.25 2.25 0.25 4 1 C3.01 2.32 2.02 3.64 1 5 C-0.65 4.67 -2.3 4.34 -4 4 C-2.25 1.9375 -2.25 1.9375 0 0 Z " fill="#114570" transform="translate(275,342)"/>
<path d="M0 0 C0.66 0.99 1.32 1.98 2 3 C-2.43076923 5.09230769 -2.43076923 5.09230769 -5.3125 4.625 C-5.869375 4.41875 -6.42625 4.2125 -7 4 C-6 2 -6 2 -2.9375 0.875 C-1.4834375 0.441875 -1.4834375 0.441875 0 0 Z " fill="#15436C" transform="translate(342,310)"/>
<path d="M0 0 C1.2065625 0.0309375 1.2065625 0.0309375 2.4375 0.0625 C2.1075 1.7125 1.7775 3.3625 1.4375 5.0625 C0.1175 5.0625 -1.2025 5.0625 -2.5625 5.0625 C-3.125 3.125 -3.125 3.125 -3.5625 1.0625 C-2.5625 0.0625 -2.5625 0.0625 0 0 Z " fill="#FCD52D" transform="translate(377.5625,289.9375)"/>
<path d="M0 0 C0.33 1.32 0.66 2.64 1 4 C-2.3 4.33 -5.6 4.66 -9 5 C-9 4.34 -9 3.68 -9 3 C-6.03 2.01 -3.06 1.02 0 0 Z " fill="#FFE51A" transform="translate(348,109)"/>
<path d="M0 0 C0 0.66 0 1.32 0 2 C-1.258125 2.04125 -2.51625 2.0825 -3.8125 2.125 C-4.52019531 2.14820312 -5.22789063 2.17140625 -5.95703125 2.1953125 C-8 2 -8 2 -11 0 C-7.18243176 -1.37432457 -3.92744671 -0.67975039 0 0 Z " fill="#1B73B5" transform="translate(128,103)"/>
<path d="M0 0 C4.43458973 1.3937282 6.87378374 3.60582235 10 7 C9.01 7 8.02 7 7 7 C7 6.34 7 5.68 7 5 C6.401875 4.896875 5.80375 4.79375 5.1875 4.6875 C2.70470535 3.90719311 1.64939723 2.97927667 0 1 C0 0.67 0 0.34 0 0 Z " fill="#1E61C1" transform="translate(217,145)"/>
<path d="M0 0 C4.29 0.66 8.58 1.32 13 2 C13 2.33 13 2.66 13 3 C11.20991533 3.22151549 9.41781838 3.42682213 7.625 3.625 C6.62726563 3.74101562 5.62953125 3.85703125 4.6015625 3.9765625 C3.74304688 3.98429687 2.88453125 3.99203125 2 4 C1.34 3.34 0.68 2.68 0 2 C0 1.34 0 0.68 0 0 Z " fill="#063968" transform="translate(68,351)"/>
<path d="M0 0 C3.67420866 0.30618405 4.78135513 0.75771784 7.3125 3.5625 C8.1478125 4.7690625 8.1478125 4.7690625 9 6 C8.01 6.33 7.02 6.66 6 7 C5.38125 6.21625 4.7625 5.4325 4.125 4.625 C2.10141339 2.03162353 2.10141339 2.03162353 0 0 Z " fill="#2875B0" transform="translate(224,152)"/>
<path d="M0 0 C2.64 0.66 5.28 1.32 8 2 C8.33 3.32 8.66 4.64 9 6 C6.03 4.35 3.06 2.7 0 1 C0 0.67 0 0.34 0 0 Z " fill="#114B82" transform="translate(209,335)"/>
<path d="M0 0 C2.8125 0.1875 2.8125 0.1875 6 1 C7.875 3.5625 7.875 3.5625 9 6 C5.06326356 4.68775452 2.77280706 3.08089673 0 0 Z " fill="#1C60BF" transform="translate(208,325)"/>
<path d="M0 0 C-2.63904371 1.41377341 -5.07120629 2.37240135 -8 3 C-8 2.01 -8 1.02 -8 0 C-5.13822943 -1.43088528 -3.06624227 -0.59991697 0 0 Z " fill="#093E68" transform="translate(315,364)"/>
<path d="M0 0 C-0.33 0.99 -0.66 1.98 -1 3 C-4.5625 4.1875 -4.5625 4.1875 -8 5 C-8.33 4.34 -8.66 3.68 -9 3 C-7.68 3 -6.36 3 -5 3 C-5 2.34 -5 1.68 -5 1 C-2 0 -2 0 0 0 Z " fill="#FCD52E" transform="translate(318,310)"/>
<path d="M0 0 C0 0.99 0 1.98 0 3 C-2.31 3 -4.62 3 -7 3 C-7.33 2.34 -7.66 1.68 -8 1 C-5.23735711 0.40267181 -2.83967231 0 0 0 Z " fill="#0D3E63" transform="translate(379,302)"/>
<path d="M0 0 C4.29 0.33 8.58 0.66 13 1 C13 1.33 13 1.66 13 2 C8.545 2.495 8.545 2.495 4 3 C4 2.34 4 1.68 4 1 C2.68 0.67 1.36 0.34 0 0 Z " fill="#094695" transform="translate(116,302)"/>
<path d="M0 0 C2.475 0.99 2.475 0.99 5 2 C5 2.66 5 3.32 5 4 C3.35 4.33 1.7 4.66 0 5 C0 3.33333333 0 1.66666667 0 0 Z " fill="#0B51A0" transform="translate(68,128)"/>
<path d="M0 0 C0.33 0.66 0.66 1.32 1 2 C1.66 2 2.32 2 3 2 C2.67 3.32 2.34 4.64 2 6 C1.01 6 0.02 6 -1 6 C-0.67 4.02 -0.34 2.04 0 0 Z " fill="#D1AD2D" transform="translate(254,352)"/>
<path d="M0 0 C3.07536854 0.65900754 5.07735566 1.53867783 8 3 C5.03 3 2.06 3 -1 3 C-0.67 2.01 -0.34 1.02 0 0 Z " fill="#094881" transform="translate(133,353)"/>
<path d="M0 0 C3.37462715 0.54723683 5.08235 1.0549 8 3 C5.39417629 3.93065133 4.35801776 4.14917407 1.75 3.0625 C1.1725 2.711875 0.595 2.36125 0 2 C0 1.34 0 0.68 0 0 Z " fill="#2271AE" transform="translate(167,304)"/>
<path d="M0 0 C3.07536854 0.65900754 5.07735566 1.53867783 8 3 C4.7 3 1.4 3 -2 3 C-1.34 2.67 -0.68 2.34 0 2 C0 1.34 0 0.68 0 0 Z " fill="#094C7C" transform="translate(112,301)"/>
<path d="M0 0 C0.928125 0.20625 1.85625 0.4125 2.8125 0.625 C2.8125 1.285 2.8125 1.945 2.8125 2.625 C-0.95374671 3.88041557 -2.55938934 2.99561958 -6.1875 1.625 C-3.1875 -0.375 -3.1875 -0.375 0 0 Z " fill="#1C6DBF" transform="translate(136.1875,104.375)"/>
</svg>
